<svg version="1.1" id="Layer_1" xmlns="http://www.w3.org/2000/svg" xmlns:xlink="http://www.w3.org/1999/xlink" x="0px" y="0px"
	 width="100%" viewBox="0 0 468 748" enable-background="new 0 0 468 748" xml:space="preserve">
<path fill="none" opacity="1.000000" stroke="#000000" stroke-linecap="round" stroke-linejoin="round" stroke-width="3.000000"
	d="
M455.500000,354.500000 
	C455.181183,356.994568 453.318909,358.816010 451.881866,360.392334 
	C445.138672,367.789276 447.649445,376.686188 447.683197,384.999268 
	C447.706970,390.836456 447.746460,396.757935 447.112640,402.456909 
	C446.843689,404.875275 447.113251,407.216461 447.110168,409.500153 
	C446.981598,504.499969 447.000000,599.500000 447.000000,694.500000 
	C447.000000,703.500000 447.005981,712.500000 446.995728,721.500000 
	C446.993256,723.677063 447.215698,725.875549 445.879730,729.000000 
	C439.531494,729.000000 432.509125,729.189697 425.501923,728.945251 
	C418.834381,728.712585 412.174164,728.970032 405.492676,728.655762 
	C394.682922,728.147339 383.824768,730.048523 372.979950,728.112366 
	C370.968048,727.753235 368.781342,729.063721 366.499756,729.053040 
	C346.833527,728.960815 327.159363,729.309143 307.503662,728.844910 
	C299.849213,728.664001 292.051270,728.367310 284.504791,728.447998 
	C269.852509,728.604736 255.166183,729.004150 240.500458,728.919617 
	C225.834915,728.835083 211.170212,728.978516 196.496429,728.669495 
	C173.843307,728.192627 151.166870,728.875671 128.499924,728.985413 
	C112.833633,729.061279 97.166664,729.000000 81.500000,729.000000 
	C64.500000,729.000000 47.499969,729.019104 30.500015,728.990784 
	C23.453953,728.979065 24.466795,728.046326 24.468792,723.000000 
	C24.510212,618.333313 24.530396,513.666687 24.430384,409.000061 
	C24.423841,402.153931 24.941355,395.162811 22.508886,388.496765 
	C22.065390,387.281372 23.203987,386.512451 23.518444,385.505432 
	C34.301533,386.866882 45.198639,385.127594 56.000000,386.500000 
"/>
<path fill="none" opacity="1.000000" stroke="#000000" stroke-linecap="round" stroke-linejoin="round" stroke-width="3.000000"
	d="
M74.500000,406.500000 
	C75.300331,413.484924 74.987411,420.497986 74.989067,427.500000 
	C75.006676,502.166656 74.980209,576.833313 75.042999,651.499939 
	C75.047340,656.666931 75.666672,661.833313 76.000000,667.000000 
"/>
<path fill="none" opacity="1.000000" stroke="#000000" stroke-linecap="round" stroke-linejoin="round" stroke-width="4.000000"
	d="
M382.500000,408.500000 
	C382.500000,490.500000 382.486572,572.500000 382.598083,654.499878 
	C382.600281,656.109985 380.495361,659.598938 385.000000,659.250000 
"/>
<path fill="none" opacity="1.000000" stroke="#000000" stroke-linecap="round" stroke-linejoin="round" stroke-width="3.000000"
	d="
M358.500000,408.500000 
	C358.333344,410.333344 358.021454,412.166626 358.020874,414.000000 
	C357.996613,493.000000 357.995392,572.000000 358.020996,651.000000 
	C358.021820,653.500061 358.333344,656.000000 358.500031,658.500000 
"/>
<path fill="none" opacity="1.000000" stroke="#000000" stroke-linecap="round" stroke-linejoin="round" stroke-width="3.000000"
	d="
M88.500000,408.500000 
	C88.666664,410.333344 88.978539,412.166626 88.979103,414.000000 
	C89.003365,493.000000 88.957344,572.000061 89.092041,650.999817 
	C89.101425,656.506836 86.287872,661.494324 87.000000,667.000000 
"/>
<path fill="none" opacity="1.000000" stroke="#000000" stroke-linecap="round" stroke-linejoin="round" stroke-width="3.000000"
	d="
M113.000000,408.500000 
	C113.000000,490.333344 113.036026,572.166748 112.903893,653.999817 
	C112.896538,658.552490 116.306129,662.363159 115.000000,667.000000 
"/>
<path fill="none" opacity="1.000000" stroke="#000000" stroke-linecap="round" stroke-linejoin="round" stroke-width="3.000000"
	d="
M397.000000,406.500000 
	C397.000000,488.166656 396.998047,569.833313 397.004639,651.500000 
	C397.005066,656.690491 395.337952,661.769104 396.000000,667.000000 
"/>
<path fill="none" opacity="1.000000" stroke="#000000" stroke-linecap="round" stroke-linejoin="round" stroke-width="3.000000"
	d="
M416.000000,404.500000 
	C413.264862,409.048035 414.017029,414.091461 414.015625,419.000000 
	C413.993378,496.666656 413.984833,574.333313 414.035309,652.000000 
	C414.038544,657.004150 415.526886,661.942627 415.000000,667.000000 
"/>
<path fill="none" opacity="1.000000" stroke="#000000" stroke-linecap="round" stroke-linejoin="round" stroke-width="2.000000"
	d="
M57.500000,409.000000 
	C57.500000,413.166656 57.500000,417.333344 57.500000,421.500000 
	C57.500000,487.833344 57.506771,554.166687 57.494976,620.500000 
	C57.492218,636.006409 57.798737,651.520752 56.500000,667.000000 
"/>
<path fill="none" opacity="1.000000" stroke="#000000" stroke-linecap="round" stroke-linejoin="round" stroke-width="3.000000"
	d="
M341.250000,339.000000 
	C335.430634,341.060669 329.385681,339.345367 323.506653,340.055023 
	C317.354767,340.797638 313.830597,338.720703 310.274689,333.143646 
	C297.632355,313.315613 279.376526,300.232971 256.460449,295.179413 
	C225.402664,288.330353 197.525818,295.434906 174.001724,317.501831 
	C167.605225,323.502106 162.153076,330.251892 158.028778,338.015289 
	C157.435730,339.131622 156.922836,340.059998 155.499939,340.001587 
	C147.503372,339.673218 139.478775,340.654694 131.501740,339.488068 
	C130.988358,339.412964 130.500000,339.166656 130.000000,339.000000 
"/>
<path fill="none" opacity="1.000000" stroke="#000000" stroke-linecap="round" stroke-linejoin="round" stroke-width="3.000000"
	d="
M373.500000,354.000000 
	C367.558807,352.608185 361.392181,353.071106 355.510742,353.289368 
	C344.972626,353.680603 334.501129,352.310028 323.998932,352.983429 
	C322.173096,353.100494 320.276062,352.705750 318.509674,353.049683 
	C309.709015,354.763367 305.006439,351.082275 300.736694,343.141571 
	C291.506683,325.975952 276.673676,314.521301 257.968933,309.107300 
	C220.449997,298.247559 183.428528,315.067627 166.595688,349.546722 
	C165.260147,352.282288 163.755722,353.028595 161.000183,353.040771 
	C140.166519,353.132843 119.333336,353.333344 98.500000,353.500000 
"/>
<path fill="none" opacity="1.000000" stroke="#000000" stroke-linecap="round" stroke-linejoin="round" stroke-width="3.000000"
	d="
M286.000000,715.500000 
	C287.299438,680.509216 286.970856,645.502869 286.998260,610.500000 
	C287.008942,596.833313 286.924225,583.166016 287.050018,569.500488 
	C287.084045,565.800232 285.979248,564.070251 281.994202,564.436890 
	C278.845154,564.726746 276.195007,564.325195 273.308624,561.711304 
	C268.814209,557.641296 263.296295,554.216858 256.508728,555.544678 
	C255.145294,555.811401 254.313721,554.995544 253.538101,554.446228 
	C244.293869,547.899841 234.127975,547.851746 224.065079,551.195801 
	C218.741806,552.964844 213.850433,555.674988 208.011902,556.147217 
	C204.060730,556.466797 200.478409,559.066101 197.640076,561.653625 
	C194.928345,564.125793 192.227066,564.813721 189.004440,564.459595 
	C185.414490,564.065063 184.377396,565.435791 184.423431,569.000977 
	C184.608459,583.331909 184.500000,597.666687 184.500000,612.000000 
	C184.500000,636.000000 184.104492,660.009521 184.680725,683.995667 
	C184.936874,694.656982 185.456879,705.324280 185.500000,716.000000 
"/>
<path fill="none" opacity="1.000000" stroke="#000000" stroke-linecap="round" stroke-linejoin="round" stroke-width="3.000000"
	d="
M245.000000,337.500000 
	C271.738037,344.605347 282.535583,362.899689 281.139038,389.750000 
	C306.166656,389.750000 330.833344,389.750000 355.923065,389.750000 
	C357.346649,394.106659 357.723358,398.765839 356.000000,403.500000 
"/>
<path fill="none" opacity="1.000000" stroke="#000000" stroke-linecap="round" stroke-linejoin="round" stroke-width="3.000000"
	d="
M226.000000,337.500000 
	C213.394363,340.441406 203.971573,347.439850 196.861526,358.410248 
	C190.582825,368.097992 189.797516,378.633820 190.016479,390.000000 
	C187.844055,390.000000 186.172028,390.000000 184.500000,390.000000 
	C165.833328,390.000000 147.166580,390.031525 128.500061,389.977203 
	C123.999619,389.964081 119.500000,389.666656 115.000000,389.499969 
"/>
<path fill="none" opacity="1.000000" stroke="#000000" stroke-linecap="round" stroke-linejoin="round" stroke-width="3.000000"
	d="
M125.500000,448.000000 
	C126.343361,449.771820 125.984428,451.661285 125.985985,453.500000 
	C126.006912,478.166656 125.985413,502.833344 126.009232,527.500000 
	C126.016037,534.546021 126.951324,533.663757 132.000473,533.516174 
	C144.163773,533.160706 156.345169,534.106384 168.502747,533.031128 
	C169.314987,532.959290 170.170456,533.316467 170.999390,533.502808 
	C176.913177,534.831665 178.589539,533.681152 179.000015,528.000000 
	C179.125290,526.266113 179.125275,526.266113 181.500000,524.000000 
	C185.178131,530.517822 185.038620,531.912964 180.000000,539.000000 
	C177.972412,539.235657 176.530396,538.007385 175.000000,537.000000 
"/>
<path fill="none" opacity="1.000000" stroke="#000000" stroke-linecap="round" stroke-linejoin="round" stroke-width="4.000000"
	d="
M345.500000,448.000000 
	C345.500000,474.666656 345.501221,501.333344 345.498993,528.000000 
	C345.498535,533.492554 345.492584,533.497559 340.000000,533.499023 
	C328.000000,533.502319 315.999969,533.510071 304.000031,533.489746 
	C302.092010,533.486511 300.198120,533.423035 298.500000,534.500000 
"/>
<path fill="none" opacity="1.000000" stroke="#000000" stroke-linecap="round" stroke-linejoin="round" stroke-width="3.000000"
	d="
M116.000000,366.500000 
	C122.144073,367.502563 128.333557,366.917114 134.500259,366.970703 
	C146.166046,367.072052 157.834854,366.895905 169.499023,367.066528 
	C172.790131,367.114655 174.855896,366.248810 176.038895,363.014221 
	C179.218307,354.321045 183.570175,346.288574 189.996048,339.496277 
	C198.713226,330.282043 209.239563,323.192749 221.544800,321.289642 
	C243.764877,317.853149 264.651703,321.582153 280.978302,339.020294 
	C287.330139,345.804565 292.047699,353.650787 294.989044,362.503632 
	C296.045502,365.683380 297.712585,367.172333 301.501770,367.112885 
	C318.164307,366.851288 334.834808,366.866272 351.499481,367.048218 
	C362.165710,367.164642 372.847260,366.442963 383.500000,367.500000 
"/>
<path fill="none" opacity="1.000000" stroke="#000000" stroke-linecap="round" stroke-linejoin="round" stroke-width="4.000000"
	d="
M274.500000,727.500000 
	C275.101471,719.339539 275.924988,711.216675 276.103943,703.002258 
	C276.935333,664.834412 276.263733,626.666382 276.439545,588.499695 
	C276.454834,585.179199 278.629059,581.254822 275.436340,578.575867 
	C270.550476,574.476379 265.246582,570.818298 258.498566,570.534302 
	C256.350616,570.443909 254.445435,570.240112 252.462524,569.063110 
	C241.634140,562.635864 230.501434,562.919495 219.565613,568.625732 
	C217.192429,569.864075 215.036865,570.359558 212.503601,570.548401 
	C205.585510,571.063843 199.917496,574.328613 195.581650,579.567566 
	C193.674789,581.871582 194.799347,585.240356 194.689163,588.007507 
	C194.371552,595.985107 194.318100,603.994446 194.890228,612.007812 
	C195.291901,617.633972 194.539841,623.332947 194.522934,629.000061 
	C194.463760,648.833191 193.984329,668.686218 194.735092,688.491089 
	C195.069962,697.324585 194.571396,706.259521 195.789841,714.959412 
	C196.400681,719.320984 196.839172,723.627502 197.000000,728.000000 
"/>
<path fill="none" opacity="1.000000" stroke="#000000" stroke-linecap="round" stroke-linejoin="round" stroke-width="3.000000"
	d="
M226.000000,322.000000 
	C224.031723,327.405518 224.811279,332.401245 227.365463,337.566528 
	C228.918869,340.707916 229.148117,344.504089 230.024231,348.227325 
	C221.834778,349.982361 215.074463,354.122070 209.456543,360.461487 
	C199.915985,371.227203 199.175140,390.645966 208.345276,402.618500 
	C212.996735,408.691467 218.996353,412.122528 225.564606,414.844055 
	C228.537888,416.075989 231.383911,416.572784 230.964249,420.496185 
	C230.637390,423.551880 226.548004,426.754364 223.033844,425.866089 
	C216.751236,424.278076 210.435699,422.255280 206.045517,416.962250 
	C204.922577,415.608368 204.229324,413.954681 203.884247,412.020660 
	C203.321671,408.867554 197.230850,404.549896 193.999954,404.546875 
	C193.557938,404.546478 193.040741,404.098846 192.425217,404.945648 
	C190.927765,407.005676 189.441223,413.789124 191.094467,415.403229 
	C193.618744,417.867767 195.491806,422.229004 200.522003,420.050812 
	C202.020126,419.402069 203.139832,421.082123 204.504257,421.485596 
	C205.809387,421.871490 206.216141,420.582458 207.000000,420.000000 
"/>
<path fill="none" opacity="1.000000" stroke="#000000" stroke-linecap="round" stroke-linejoin="round" stroke-width="2.000000"
	d="
M235.500000,614.000000 
	C235.500000,649.833313 235.500000,685.666687 235.500000,721.500000 
	C235.500000,723.666687 235.500000,725.833313 235.500000,728.000000 
"/>
<path fill="none" opacity="1.000000" stroke="#000000" stroke-linecap="round" stroke-linejoin="round" stroke-width="3.000000"
	d="
M319.000000,449.500000 
	C314.046875,447.736023 302.101349,450.530640 299.593811,454.558411 
	C297.478180,457.956757 298.095764,462.162109 298.066345,466.000519 
	C297.920746,484.999390 298.037842,504.000153 297.960541,522.999817 
	C297.948517,525.961914 299.036987,527.067810 302.000366,527.040466 
	C312.999451,526.938965 324.002960,526.855896 334.998322,527.082153 
	C338.604858,527.156372 339.584961,525.882690 339.552124,522.499512 
	C339.424225,509.334076 339.500000,496.166656 339.500000,483.000000 
	C339.500000,475.000000 339.413971,466.998566 339.548218,459.000824 
	C339.593201,456.320709 339.030548,454.254913 336.502777,452.994415 
	C331.141022,450.320770 325.780426,447.685577 319.500000,449.500000 
"/>
<path fill="none" opacity="1.000000" stroke="#000000" stroke-linecap="round" stroke-linejoin="round" stroke-width="3.000000"
	d="
M151.500000,449.000000 
	C144.713272,447.834442 139.046234,450.687408 133.495468,453.992401 
	C132.109802,454.817413 131.975082,456.042694 131.977158,457.500031 
	C132.009750,480.333344 131.998947,503.166656 132.020676,526.000000 
	C132.020828,526.166809 132.333328,526.333313 132.750000,526.750000 
	C145.833328,526.750000 159.166672,526.750000 173.000000,526.750000 
	C173.000000,523.686218 173.000000,520.843079 173.000000,518.000000 
	C173.000000,498.666656 172.920776,479.332733 173.072647,460.000580 
	C173.100159,456.498749 172.358826,454.010681 169.012741,452.472290 
	C163.752441,450.053833 158.461426,447.991364 152.500000,449.000000 
"/>
<path fill="none" opacity="1.000000" stroke="#000000" stroke-linecap="round" stroke-linejoin="round" stroke-width="3.000000"
	d="
M245.000000,322.000000 
	C249.605942,327.799347 245.321930,333.126617 243.882980,338.468475 
	C242.986084,341.798126 241.947342,345.070160 241.422333,348.485840 
	C260.153595,351.902985 270.544586,367.778961 269.865356,382.993988 
	C269.228119,397.269958 261.769409,409.414673 245.439255,414.816376 
	C241.751205,416.036316 240.048401,417.476562 240.573746,420.988983 
	C241.038055,424.093445 246.898331,427.142242 249.979813,425.947906 
	C253.282166,424.667908 256.222076,422.396393 260.000000,422.500000 
"/>
<path fill="none" opacity="1.000000" stroke="#000000" stroke-linecap="round" stroke-linejoin="round" stroke-width="3.000000"
	d="
M209.000000,261.500000 
	C208.687180,275.480835 201.956253,286.444885 192.455109,295.955170 
	C188.037003,300.377533 182.962769,303.760498 176.528397,305.133118 
	C171.850113,306.131104 167.799271,309.068146 164.024734,312.031494 
	C157.343689,317.276764 150.643265,322.332520 142.013885,324.069031 
	C139.538483,324.567169 137.457291,326.547363 137.116257,329.016052 
	C136.616714,332.632080 134.609756,335.386353 131.914886,336.842468 
	C127.425873,339.268005 127.189911,342.828278 127.478775,347.001465 
	C127.605072,348.826080 127.500000,350.666656 127.500000,352.500000 
"/>
<path fill="none" opacity="1.000000" stroke="#000000" stroke-linecap="round" stroke-linejoin="round" stroke-width="3.000000"
	d="
M262.500000,261.500000 
	C261.488129,276.917847 277.225037,300.169434 292.509094,304.467682 
	C299.345337,306.390198 305.140839,310.081482 310.468323,314.537872 
	C315.827026,319.020386 321.815308,322.152527 328.505707,323.979095 
	C331.456818,324.784760 333.568939,325.392639 334.232483,329.462097 
	C335.362640,336.393250 343.666565,341.190399 351.977661,339.860413 
	C358.919891,338.749542 365.650970,340.715027 372.505585,340.058289 
	C376.977722,339.629852 381.549377,340.489594 385.992035,339.465485 
	C388.927795,338.788727 391.572601,340.537903 394.513489,340.088104 
	C396.446472,339.792480 398.426849,339.871063 400.250000,339.000000 
"/>
<path fill="none" opacity="1.000000" stroke="#000000" stroke-linecap="round" stroke-linejoin="round" stroke-width="3.000000"
	d="
M339.000000,312.000000 
	C337.093842,315.266968 334.312164,315.414032 330.990204,314.537048 
	C324.720428,312.882050 319.413910,309.433380 314.563599,305.423065 
	C309.708313,301.408630 304.720673,297.981934 298.505524,296.477203 
	C287.304382,293.765350 281.430389,285.167358 275.928864,276.042877 
	C274.096771,273.004272 273.387268,269.645111 272.031677,266.486420 
	C269.674194,260.993134 272.680054,256.002472 274.126526,251.036865 
	C275.872986,245.041504 276.212952,245.498856 270.527649,244.361816 
	C267.537903,243.763885 264.836609,244.595871 261.999481,244.576569 
	C241.167114,244.434769 220.333328,244.500244 199.500000,244.499802 
	C195.095627,244.499695 193.343399,242.244247 192.330338,238.040894 
	C191.519745,234.677689 193.921814,230.970062 191.000000,228.000000 
"/>
<path fill="none" opacity="1.000000" stroke="#000000" stroke-linecap="round" stroke-linejoin="round" stroke-width="4.000000"
	d="
M135.500000,190.500000 
	C135.500000,213.500000 135.500000,236.500000 135.500000,259.500000 
	C135.500000,272.833344 135.479233,286.166718 135.523743,299.499908 
	C135.529999,301.370575 135.480621,303.127533 134.000000,304.500000 
"/>
<path fill="none" opacity="1.000000" stroke="#000000" stroke-linecap="round" stroke-linejoin="round" stroke-width="3.000000"
	d="
M336.000000,191.000000 
	C336.000000,220.000000 335.982544,249.000031 336.031097,277.999939 
	C336.035278,280.495544 335.623993,283.008636 336.412323,285.527435 
	C336.677643,286.375153 335.837982,287.407410 334.500000,286.750000 
"/>
<path fill="none" opacity="1.000000" stroke="#000000" stroke-linecap="round" stroke-linejoin="round" stroke-width="2.000000"
	d="
M72.000000,197.000000 
	C72.166664,199.166672 72.474861,201.333115 72.478203,203.500031 
	C72.513428,226.333313 72.523834,249.166718 72.477509,271.999969 
	C72.469391,276.000275 72.166672,280.000000 72.000008,284.000000 
"/>
<path fill="none" opacity="1.000000" stroke="#000000" stroke-linecap="round" stroke-linejoin="round" stroke-width="3.000000"
	d="
M24.500000,190.500000 
	C26.103735,194.270859 24.990261,198.161835 24.992487,202.000000 
	C25.007074,227.166672 25.011318,252.333344 24.978378,277.499969 
	C24.975761,279.500183 24.666668,281.500000 24.500000,283.500000 
"/>
<path fill="none" opacity="1.000000" stroke="#000000" stroke-linecap="round" stroke-linejoin="round" stroke-width="4.000000"
	d="
M446.500000,190.500000 
	C446.500000,220.000000 446.485138,249.500031 446.531860,278.999939 
	C446.535126,281.063568 445.647156,283.468414 448.002197,284.996613 
	C448.810242,285.520935 448.742584,286.631042 448.448212,286.952576 
	C444.396545,291.378662 446.616028,296.766449 446.723999,301.494873 
	C446.960449,311.844757 447.089111,322.165466 446.517334,332.500946 
	C446.397827,334.661011 446.500000,336.833344 446.500000,339.000000 
"/>
<path fill="none" opacity="1.000000" stroke="#000000" stroke-linecap="round" stroke-linejoin="round" stroke-width="3.000000"
	d="
M179.500000,447.500000 
	C182.400696,446.914185 185.949921,447.106567 185.480759,442.504089 
	C180.814240,442.449036 177.862000,438.764221 173.988434,437.025787 
	C157.226044,429.502777 140.957138,430.015503 125.551575,440.575226 
	C123.585152,441.923157 121.441566,441.658051 119.583801,442.583221 
	C118.337334,447.462280 122.262695,446.827698 125.001556,447.498291 
	C143.894897,433.358704 164.947647,433.358704 179.000000,447.500000 
"/>
<path fill="none" opacity="1.000000" stroke="#000000" stroke-linecap="round" stroke-linejoin="round" stroke-width="3.000000"
	d="
M196.750000,245.000000 
	C195.896591,248.176407 196.621979,251.277145 198.074753,253.959518 
	C201.036560,259.428101 200.080841,264.737671 197.962357,269.984802 
	C193.901779,280.042267 188.935623,290.222778 178.384827,294.194031 
	C167.971848,298.113373 158.775681,303.469177 149.957520,309.942139 
	C147.400757,311.818909 144.445099,313.288513 141.476227,314.438629 
	C135.682220,316.683136 133.039856,314.589539 133.489670,308.499237 
	C133.563126,307.504669 133.500000,306.500000 133.500000,305.500000 
"/>
<path fill="none" opacity="1.000000" stroke="#000000" stroke-linecap="round" stroke-linejoin="round" stroke-width="3.000000"
	d="
M299.000000,536.500000 
	C299.846161,539.724365 298.383270,542.563904 297.423187,545.823547 
	C300.782135,547.594421 304.217834,549.405701 307.539703,551.156982 
	C302.323364,568.118347 304.868805,585.115845 304.968323,602.000183 
	C305.001740,607.665710 304.678253,613.333740 304.480255,618.999329 
	C304.462616,619.504517 304.322937,620.211853 303.976135,620.467651 
	C299.835480,623.522095 301.039520,627.954285 301.025665,632.000061 
	C300.965759,649.499878 301.275757,667.006042 300.893341,684.497681 
	C300.674683,694.499878 301.205658,704.497864 300.910248,714.512085 
	C300.785645,718.735291 301.772186,723.469788 302.000000,728.000000 
"/>
<path fill="none" opacity="1.000000" stroke="#000000" stroke-linecap="round" stroke-linejoin="round" stroke-width="3.000000"
	d="
M72.000000,190.499985 
	C76.500000,190.166656 80.999191,189.615234 85.500366,189.598602 
	C87.532471,189.591080 89.474190,190.943283 88.965202,193.493057 
	C86.943993,203.618484 88.232155,213.834610 88.065514,224.001068 
	C87.814247,239.330276 87.869316,254.668381 88.070694,269.999084 
	C88.141449,275.385925 88.392220,280.246063 85.334946,285.446899 
	C83.121834,289.211670 83.160118,294.641693 82.914886,299.495697 
	C82.382851,310.026367 81.320831,320.458160 76.121193,330.065582 
	C74.599113,332.877930 72.531113,335.352448 71.374069,338.453003 
	C70.341576,341.219788 67.604561,339.794006 65.500000,339.500000 
"/>
<path fill="none" opacity="1.000000" stroke="#000000" stroke-linecap="round" stroke-linejoin="round" stroke-width="2.000000"
	d="
M336.000000,166.500000 
	C337.698120,165.423050 339.591980,165.484756 341.500031,165.489578 
	C350.666626,165.512772 359.833344,165.500000 369.000000,165.500000 
	C377.500000,165.500000 386.000000,165.500000 394.500000,165.500000 
	C409.333344,165.500000 424.166687,165.482697 438.999939,165.520508 
	C441.001404,165.525604 443.143433,164.958557 444.980133,166.033905 
	C447.543213,167.534500 448.361633,165.124771 448.853973,163.939346 
	C449.496338,162.392654 448.116608,161.074570 446.493683,160.518448 
	C445.696808,160.245377 444.780396,159.892319 444.007996,160.041367 
	C433.385040,162.091263 422.664429,160.818695 411.999268,160.930069 
	C389.835022,161.161545 367.666626,161.016830 345.500031,160.977951 
	C342.833099,160.973282 340.156647,160.437027 337.502289,160.552612 
	C333.281586,160.736389 332.538818,162.100891 334.505585,165.496750 
	C338.223694,171.916428 336.528259,178.594406 334.828949,184.954300 
	C333.755798,188.970612 333.778168,190.050964 338.000000,190.000046 
	C351.833344,189.833267 365.669769,189.780457 379.497314,189.401764 
	C382.188416,189.328064 382.748993,190.735260 382.939178,192.506531 
	C383.312622,195.984329 383.470795,199.499725 383.477661,203.000046 
	C383.521545,225.333282 383.501282,247.666672 383.498047,270.000000 
	C383.497711,272.278625 383.838470,274.642212 382.000000,276.500000 
"/>
<path fill="none" opacity="1.000000" stroke="#000000" stroke-linecap="round" stroke-linejoin="round" stroke-width="3.000000"
	d="
M179.500000,448.000000 
	C178.698730,449.603210 179.013016,451.325562 179.011627,453.000000 
	C178.994003,474.333344 178.997253,495.666656 179.003784,517.000000 
	C179.004517,519.434326 178.685623,521.948303 180.500000,524.000000 
"/>
<path fill="none" opacity="1.000000" stroke="#000000" stroke-linecap="round" stroke-linejoin="round" stroke-width="3.000000"
	d="
M292.000000,447.500000 
	C289.741119,446.345154 285.199005,448.234650 286.095581,442.803955 
	C289.002350,441.819275 291.747925,440.180939 294.573517,438.634338 
	C310.168030,430.098572 326.073792,429.417603 342.000793,437.998535 
	C344.495117,439.342377 346.925323,440.846985 349.530731,441.925812 
	C350.883972,442.486145 352.013428,442.977570 351.960052,444.498596 
	C351.898315,446.257904 350.771027,447.031128 348.999908,447.023499 
	C347.995514,447.019165 346.990143,447.251465 345.887726,447.389374 
	C332.412781,434.110901 309.055878,433.645050 294.866119,444.830170 
	C292.676941,446.555786 292.509186,447.947327 292.508026,450.000000 
	C292.495239,472.500000 292.497009,495.000000 292.505066,517.500000 
	C292.505798,519.562012 292.668915,521.639282 291.500000,523.500000 
"/>
<path fill="none" opacity="1.000000" stroke="#000000" stroke-linecap="round" stroke-linejoin="round" stroke-width="2.000000"
	d="
M119.500000,354.500000 
	C119.870415,357.129639 118.691467,359.308685 117.507050,361.503815 
	C115.572395,365.089325 114.911041,368.925354 114.963791,373.000458 
	C115.080254,381.998962 115.508934,391.041901 114.772934,399.981293 
	C114.434166,404.095917 116.190880,403.496307 118.500000,403.496826 
	C141.500000,403.502075 164.500031,403.486725 187.499924,403.534363 
	C188.821121,403.537109 190.278091,402.941986 191.500000,404.000000 
"/>
<path fill="none" opacity="1.000000" stroke="#000000" stroke-linecap="round" stroke-linejoin="round" stroke-width="3.000000"
	d="
M400.000000,90.000000 
	C400.052216,88.315933 400.068817,86.389397 398.459015,85.581665 
	C396.673431,84.685722 398.296844,82.825165 397.000000,82.000000 
	C401.344269,76.743088 398.300110,70.790062 397.686218,65.536667 
	C396.653870,56.702812 396.413483,47.797646 395.100800,38.984985 
	C394.094177,32.227112 393.947144,25.336510 393.535828,18.497845 
	C393.428253,16.709179 392.952179,15.351587 391.007080,15.564650 
	C389.535980,15.725792 389.046509,16.918684 388.957977,18.497643 
	C387.926666,36.886452 385.950592,55.194286 383.928741,73.492126 
	C383.478516,77.566467 385.449554,81.108025 385.500000,85.000000 
"/>
<path fill="none" opacity="1.000000" stroke="#000000" stroke-linecap="round" stroke-linejoin="round" stroke-width="3.000000"
	d="
M85.500000,82.000000 
	C89.679649,78.091240 87.158409,73.210281 86.820778,69.014420 
	C85.492188,52.503407 83.143288,36.077679 82.505463,19.499790 
	C82.434906,17.666000 82.874001,15.239871 80.013809,15.607469 
	C78.221550,15.837815 77.863579,17.197681 77.785095,19.492651 
	C77.476685,28.510603 76.350578,37.501644 75.493065,46.499340 
	C75.032074,51.336388 74.212433,56.158615 74.076805,61.002151 
	C73.925926,66.390259 73.123970,71.683441 72.442612,76.992638 
	C72.051071,80.043610 75.387543,81.944778 74.500000,85.000000 
"/>
<path fill="none" opacity="1.000000" stroke="#000000" stroke-linecap="round" stroke-linejoin="round" stroke-width="3.000000"
	d="
M173.000000,536.500000 
	C170.304825,539.658997 173.612198,542.484497 173.492371,545.971863 
	C170.581863,548.305420 166.273499,548.972046 163.408478,552.107727 
	C169.364166,564.282654 166.652802,577.237183 166.519150,590.000183 
	C166.421432,599.332520 166.516541,608.666748 166.487579,617.999939 
	C166.480911,620.151672 167.453522,621.451538 169.500000,622.000000 
"/>
<path fill="none" opacity="1.000000" stroke="#000000" stroke-linecap="round" stroke-linejoin="round" stroke-width="4.000000"
	d="
M183.500000,606.499939 
	C180.500000,606.333313 177.501419,606.131348 174.499588,606.010315 
	C171.774155,605.900513 170.406433,606.755920 170.423752,610.000427 
	C170.560822,635.666382 170.500000,661.333313 170.500000,687.000000 
	C170.500000,696.166687 170.939102,705.363464 170.312927,714.487183 
	C170.004364,718.983154 169.563080,723.479980 169.500000,728.000000 
"/>
<path fill="none" opacity="1.000000" stroke="#000000" stroke-linecap="round" stroke-linejoin="round" stroke-width="3.000000"
	d="
M405.500000,110.000000 
	C405.263611,115.852852 409.220947,119.131035 413.589630,121.321236 
	C416.676422,122.868782 420.291168,123.768318 423.993469,124.077957 
	C436.081726,125.088928 436.646851,125.947914 439.940918,138.515488 
	C440.523895,140.739700 440.549622,143.175446 440.455383,145.498184 
	C440.253967,150.461227 440.743134,155.249741 443.000000,159.750000 
"/>
<path fill="none" opacity="1.000000" stroke="#000000" stroke-linecap="round" stroke-linejoin="round" stroke-width="3.000000"
	d="
M377.500000,110.000000 
	C375.309753,118.734528 369.731262,122.844978 358.500000,123.999992 
	C348.362427,125.042534 344.521362,127.566498 343.094269,135.018051 
	C342.377350,138.761520 341.542114,142.584381 341.982635,146.501953 
	C342.515472,151.240860 341.853210,155.752930 339.000000,159.750000 
"/>
<path fill="none" opacity="1.000000" stroke="#000000" stroke-linecap="round" stroke-linejoin="round" stroke-width="3.000000"
	d="
M63.000000,101.500000 
	C73.651878,100.387016 84.334137,101.188690 95.000778,101.070602 
	C97.731682,101.040375 99.053520,103.995682 97.436127,106.458046 
	C95.887711,108.815407 93.157707,110.542267 94.978867,114.011093 
	C96.877686,117.627831 99.651451,120.012665 103.472588,121.567383 
	C107.852463,123.349449 112.386833,123.969719 116.997475,124.521118 
	C123.107521,125.251839 126.824104,128.320953 127.934319,134.012817 
	C128.766891,138.281265 129.414093,142.669357 129.386032,146.999268 
	C129.356705,151.521805 130.120926,155.705048 132.000000,159.750000 
"/>
<path fill="none" opacity="1.000000" stroke="#000000" stroke-linecap="round" stroke-linejoin="round" stroke-width="3.000000"
	d="
M66.000000,110.500000 
	C65.313751,116.308846 61.569195,119.422508 56.510857,121.526108 
	C52.324837,123.266953 47.975788,124.031105 43.504463,124.539261 
	C36.562229,125.328224 33.207401,129.143341 31.897381,135.980331 
	C31.062424,140.337967 30.828865,144.657394 31.065636,148.996414 
	C31.285349,153.022812 29.274632,156.243301 28.000000,159.750000 
"/>
<path fill="none" opacity="1.000000" stroke="#000000" stroke-linecap="round" stroke-linejoin="round" stroke-width="2.000000"
	d="
M56.000000,238.000000 
	C57.142811,230.020340 57.518265,221.734299 56.012962,214.095978 
	C55.071522,209.318878 51.531540,203.491760 45.470776,201.593292 
	C44.000568,201.132767 41.984581,201.425690 40.533077,202.074051 
	C35.561615,204.294632 34.726669,210.111252 31.072241,213.576187 
	C30.410049,214.204071 31.249969,215.638901 32.000000,216.500000 
"/>
<path fill="none" opacity="1.000000" stroke="#000000" stroke-linecap="round" stroke-linejoin="round" stroke-width="2.000000"
	d="
M407.000000,669.000000 
	C406.833344,686.166687 406.718018,703.334106 406.443359,720.499084 
	C406.403259,723.005615 407.398804,725.500000 406.500000,728.000000 
"/>
<path fill="none" opacity="1.000000" stroke="#000000" stroke-linecap="round" stroke-linejoin="round" stroke-width="2.000000"
	d="
M65.000000,669.000000 
	C64.198730,670.603210 64.513451,672.325562 64.511703,674.000000 
	C64.492920,692.000000 64.500000,710.000000 64.500000,728.000000 
"/>
<path fill="none" opacity="1.000000" stroke="#000000" stroke-linecap="round" stroke-linejoin="round" stroke-width="3.000000"
	d="
M367.000000,239.500000 
	C369.170654,230.903992 367.442932,222.158066 368.000000,213.500000 
	C364.192413,210.079071 362.900726,204.380829 357.979004,202.044250 
	C353.345184,199.844330 347.745087,203.552597 345.924469,208.974640 
	C342.435242,219.366150 343.590912,229.912552 343.927917,240.502289 
	C344.144989,247.323410 344.180450,254.231720 343.326416,260.978027 
	C342.717377,265.789276 345.922241,268.696594 347.798859,271.820465 
	C350.042725,275.555756 355.107574,274.449921 358.963623,273.370087 
	C360.975372,272.806641 363.122437,274.308838 365.405426,271.308502 
	C367.363495,268.735260 368.098511,266.691833 367.955444,264.002380 
	C367.556549,256.504150 369.141632,248.919632 367.000000,241.500000 
"/>
<path fill="none" opacity="1.000000" stroke="#000000" stroke-linecap="round" stroke-linejoin="round" stroke-width="3.000000"
	d="
M274.500000,226.500000 
	C275.004852,222.532059 274.746246,218.670700 278.345734,215.333603 
	C281.801239,212.129959 280.120758,205.474167 275.999969,202.000031 
	C272.416748,198.979050 266.485321,199.295731 263.036957,203.034103 
	C259.133759,207.265610 258.834412,211.294312 262.038361,215.973740 
	C262.954559,217.311874 264.333344,218.333328 265.500000,219.500000 
"/>
<path fill="none" opacity="1.000000" stroke="#000000" stroke-linecap="round" stroke-linejoin="round" stroke-width="3.000000"
	d="
M440.000000,243.500000 
	C441.587433,251.279968 440.776276,259.162018 440.999420,267.000031 
	C441.004150,267.166534 441.068390,267.431549 440.990234,267.485962 
	C436.618866,270.529449 435.821259,276.937225 430.481750,278.951599 
	C425.617889,280.786560 418.365631,277.381409 418.500000,269.000000 
"/>
<path fill="none" opacity="1.000000" stroke="#000000" stroke-linecap="round" stroke-linejoin="round" stroke-width="3.000000"
	d="
M94.000000,275.500000 
	C94.614426,278.802155 97.007324,281.162781 98.711693,284.186951 
	C93.761162,291.334167 94.259941,299.927338 93.159096,308.021637 
	C91.772614,318.216034 89.933655,328.093384 84.517723,337.010773 
	C84.213982,337.510864 84.166664,338.166656 84.000000,338.750000 
"/>
<path fill="none" opacity="1.000000" stroke="#000000" stroke-linecap="round" stroke-linejoin="round" stroke-width="3.000000"
	d="
M377.500000,275.500000 
	C374.010590,280.728241 373.289459,285.691650 375.688293,292.116394 
	C378.104462,298.587616 378.210907,305.977905 378.947601,313.005493 
	C379.909119,322.178314 383.212585,330.484711 387.500000,338.500000 
"/>
<path fill="none" opacity="1.000000" stroke="#000000" stroke-linecap="round" stroke-linejoin="round" stroke-width="6.000000"
	d="
M270.500000,260.500000 
	C247.333328,260.500000 224.166672,260.500000 201.000000,260.500000 
"/>
<path fill="none" opacity="1.000000" stroke="#000000" stroke-linecap="round" stroke-linejoin="round" stroke-width="3.000000"
	d="
M391.500000,92.500000 
	C391.500000,94.833336 391.395752,97.172440 391.524658,99.498634 
	C391.713898,102.913628 391.582886,106.115753 393.178711,109.645271 
	C394.924530,113.506622 394.201050,118.497780 394.492004,123.000511 
	C394.944214,129.998566 395.403137,136.986435 394.547363,144.005768 
	C394.125122,147.469040 394.968292,150.839600 396.499878,154.000061 
	C397.426971,155.913162 398.605774,157.742523 398.500000,160.000000 
"/>
<path fill="none" opacity="1.000000" stroke="#000000" stroke-linecap="round" stroke-linejoin="round" stroke-width="3.000000"
	d="
M211.000000,423.000000 
	C208.133484,425.252777 208.179916,427.788879 211.543076,428.865417 
	C215.912018,430.263885 218.131943,433.173218 220.092117,436.952209 
	C221.281738,439.245697 223.542389,440.514343 226.508972,440.058411 
	C228.179001,439.801727 230.034256,439.662079 231.461700,440.762512 
	C231.945923,443.795471 229.177765,444.390076 227.915375,445.930664 
	C225.215057,449.226074 224.921326,452.378784 226.984039,456.009064 
	C230.287567,461.823212 227.803848,465.914825 221.000000,466.000031 
	C212.691376,466.104095 210.025818,468.905701 209.989578,477.499969 
	C209.980972,479.542664 209.988785,481.483063 209.100983,483.543518 
	C207.337326,487.636719 207.233032,491.672882 210.404205,495.577789 
	C212.263107,497.866852 213.545547,500.886810 211.590698,504.140839 
	C210.808853,503.714203 209.641724,503.424500 209.584442,502.988892 
	C209.250488,500.449188 207.879730,499.471039 205.506104,500.026123 
	C202.613068,500.702698 203.413498,503.168304 203.558884,504.995300 
	C203.865143,508.844086 204.738251,512.654053 204.942444,516.503052 
	C205.226852,521.863708 204.369415,521.861755 199.015091,522.223450 
	C195.742310,522.444519 193.446930,521.545593 190.700638,519.781006 
	C188.582809,522.177307 186.009949,523.976562 182.500000,523.500000 
"/>
<path fill="none" opacity="1.000000" stroke="#000000" stroke-linecap="round" stroke-linejoin="round" stroke-width="2.000000"
	d="
M80.000000,108.000000 
	C76.032944,110.010979 77.258911,114.095062 77.201309,117.003983 
	C77.016708,126.326591 75.783951,135.638290 76.881271,145.013901 
	C77.323601,148.793121 75.739784,152.523865 74.027176,156.013336 
	C73.404907,157.281250 72.136894,158.343002 72.500000,160.000000 
"/>
<path fill="none" opacity="1.000000" stroke="#000000" stroke-linecap="round" stroke-linejoin="round" stroke-width="3.000000"
	d="
M391.500000,107.500000 
	C386.766998,110.459816 388.353424,115.549446 388.233948,119.507065 
	C388.003296,127.149529 387.061432,134.817734 387.950378,142.505737 
	C388.500061,147.259659 387.458374,151.823318 385.001282,156.000763 
	C384.276337,157.233322 383.748016,158.520340 384.000000,160.000000 
"/>
<path fill="none" opacity="1.000000" stroke="#000000" stroke-linecap="round" stroke-linejoin="round" stroke-width="2.000000"
	d="
M350.500000,700.500000 
	C340.500000,700.500000 330.500000,700.500000 320.500000,700.500000 
	C314.333344,700.500000 308.166656,700.500000 302.000000,700.500000 
"/>
<path fill="none" opacity="1.000000" stroke="#000000" stroke-linecap="round" stroke-linejoin="round" stroke-width="4.000000"
	d="
M417.000000,228.500000 
	C417.333313,227.666656 418.059021,226.771301 417.938629,226.009705 
	C416.864136,219.212738 419.894409,213.814743 423.458923,208.472595 
	C425.577332,205.297699 429.927551,204.728622 431.920410,208.047791 
	C434.761658,212.779938 437.934021,217.282822 437.636993,223.506531 
	C437.137024,233.982681 436.939484,244.541046 437.704285,254.985046 
	C438.184753,261.546478 435.369476,266.623688 432.904907,271.956055 
	C430.881897,276.333099 425.594879,276.234253 423.091095,271.946808 
	C422.494324,270.924866 421.713531,269.866821 420.964722,269.598480 
	C416.407288,267.965240 416.459656,264.321136 416.480621,260.499908 
	C416.537292,250.166870 416.500000,239.833328 416.500000,229.500000 
"/>
<path fill="none" opacity="1.000000" stroke="#000000" stroke-linecap="round" stroke-linejoin="round" stroke-width="3.000000"
	d="
M289.500000,523.500000 
	C285.997986,523.624207 282.670837,523.298828 280.586456,519.214417 
	C277.472198,523.644348 273.122803,521.438965 269.462494,522.349121 
	C267.545654,522.825806 265.144379,518.381348 266.063751,516.024841 
	C267.398956,512.602600 267.570831,509.037659 267.964996,505.496094 
	C268.211884,503.278107 268.441986,500.680206 265.487305,500.060516 
	C262.535217,499.441406 262.201630,502.018402 261.468750,503.988373 
	C261.370270,504.253052 260.848114,504.360107 260.371979,504.623169 
	C256.962799,503.494995 258.414398,500.148743 259.161560,499.117004 
	C263.607056,492.979095 263.562683,486.942078 261.313110,479.899963 
	C260.419769,477.103455 261.371429,473.507507 259.535645,470.478394 
	C257.660004,467.383514 256.006165,464.645538 251.475388,465.911957 
	C247.867767,466.920288 245.191940,464.615845 243.027725,461.977264 
	C242.043930,460.777832 242.214584,459.353516 242.994141,457.996643 
	C247.051910,450.933807 246.533783,448.416077 240.018402,442.977966 
	C239.654755,442.674408 239.557465,442.051758 239.513702,441.957977 
	C239.461746,440.795074 239.780823,440.473511 240.500122,440.496094 
	C246.906418,440.697540 251.677353,438.361908 254.045715,432.017059 
	C254.559998,430.639252 256.262085,430.564758 257.485077,429.969330 
	C260.420135,428.540314 264.213806,427.483826 260.568207,422.945221 
	C259.552185,421.680267 260.535553,420.305084 261.992371,419.486420 
	C265.498047,417.516388 267.119324,414.444916 268.138611,410.536133 
	C269.144012,406.680420 273.430420,405.705780 276.571106,404.728485 
	C279.784851,403.728455 283.397125,403.372894 287.000885,403.406738 
	C307.499054,403.599213 328.000580,403.571503 348.499268,403.407715 
	C351.004669,403.387665 353.500000,404.885010 356.000000,403.500000 
"/>
<path fill="none" opacity="1.000000" stroke="#000000" stroke-linecap="round" stroke-linejoin="round" stroke-width="2.000000"
	d="
M169.500000,700.000000 
	C153.166672,700.166687 136.833328,700.333374 120.500000,700.500000 
"/>
<path fill="none" opacity="1.000000" stroke="#000000" stroke-linecap="round" stroke-linejoin="round" stroke-width="4.000000"
	d="
M400.000000,172.000000 
	C409.316315,173.119934 418.667603,172.262161 428.000580,172.475220 
	C433.830872,172.608337 439.666656,172.500000 445.500000,172.500000 
"/>
<path fill="none" opacity="1.000000" stroke="#000000" stroke-linecap="round" stroke-linejoin="round" stroke-width="4.000000"
	d="
M89.000000,172.000000 
	C98.316307,173.119934 107.667595,172.262146 117.000565,172.475220 
	C122.830864,172.608337 128.666672,172.500000 134.500000,172.500000 
"/>
<path fill="none" opacity="1.000000" stroke="#000000" stroke-linecap="round" stroke-linejoin="round" stroke-width="4.000000"
	d="
M71.000000,172.000000 
	C61.517345,173.155334 51.998821,172.239502 42.499386,172.475220 
	C37.002769,172.611633 31.500000,172.500000 26.000000,172.500000 
"/>
<path fill="none" opacity="1.000000" stroke="#000000" stroke-linecap="round" stroke-linejoin="round" stroke-width="3.000000"
	d="
M446.500000,184.000000 
	C444.447388,185.074615 442.229309,185.014313 439.999969,185.009903 
	C429.000031,184.988098 417.999908,184.977219 407.000092,185.022446 
	C405.166107,185.029968 403.333344,185.333328 401.500000,185.500000 
"/>
<path fill="none" opacity="1.000000" stroke="#000000" stroke-linecap="round" stroke-linejoin="round" stroke-width="4.000000"
	d="
M446.500000,284.000000 
	C444.896790,284.801270 443.174469,284.486298 441.500000,284.488251 
	C425.000000,284.507721 408.499908,284.477051 392.000122,284.535431 
	C390.342865,284.541290 388.577454,283.941315 387.000000,285.000000 
"/>
<path fill="none" opacity="1.000000" stroke="#000000" stroke-linecap="round" stroke-linejoin="round" stroke-width="4.000000"
	d="
M89.000000,196.000000 
	C98.482658,197.155334 108.001175,196.239502 117.500618,196.475235 
	C122.997231,196.611649 128.500000,196.500000 134.000000,196.500000 
"/>
<path fill="none" opacity="1.000000" stroke="#000000" stroke-linecap="round" stroke-linejoin="round" stroke-width="4.000000"
	d="
M382.500000,196.000000 
	C375.689270,197.093735 368.832733,196.345154 361.999390,196.465942 
	C353.835297,196.610291 345.666656,196.500000 337.500000,196.500000 
"/>
<path fill="none" opacity="1.000000" stroke="#000000" stroke-linecap="round" stroke-linejoin="round" stroke-width="4.000000"
	d="
M445.500000,196.500000 
	C430.500000,196.500000 415.500000,196.500000 400.500000,196.500000 
"/>
<path fill="none" opacity="1.000000" stroke="#000000" stroke-linecap="round" stroke-linejoin="round" stroke-width="3.000000"
	d="
M389.000000,295.500000 
	C394.475403,294.521759 399.997681,295.030273 405.500031,295.013336 
	C418.833252,294.972290 432.166656,295.000000 445.500000,295.000000 
"/>
<path fill="none" opacity="1.000000" stroke="#000000" stroke-linecap="round" stroke-linejoin="round" stroke-width="3.000000"
	d="
M65.999992,367.000000 
	C65.166664,362.166656 64.477043,357.302979 63.463703,352.507660 
	C62.189331,346.477081 62.893047,340.764313 66.035446,335.521240 
	C70.679184,327.773132 72.033043,319.323181 72.003075,310.500000 
	C71.986069,305.495300 72.000000,300.490479 72.000000,295.000000 
	C57.003586,295.000000 41.501793,295.000000 26.000000,295.000000 
"/>
<path fill="none" opacity="1.000000" stroke="#000000" stroke-linecap="round" stroke-linejoin="round" stroke-width="3.000000"
	d="
M336.500000,184.500000 
	C342.810028,185.551727 349.166992,184.850006 355.500549,184.971390 
	C362.164764,185.099136 368.833374,184.990463 375.500000,185.006088 
	C377.385986,185.010498 379.344025,184.691177 381.000000,186.000000 
"/>
<path fill="none" opacity="1.000000" stroke="#000000" stroke-linecap="round" stroke-linejoin="round" stroke-width="3.000000"
	d="
M71.500000,196.000000 
	C71.582825,193.979202 72.856796,191.859161 70.540695,189.540085 
	C56.007736,189.137009 40.998085,190.836533 25.985378,189.691772 
	C23.845068,189.528564 22.676098,189.613739 22.551075,187.496979 
	C22.441816,185.647079 23.855927,184.412888 25.494160,184.563507 
	C39.978752,185.895264 54.525894,184.049591 68.998322,185.516556 
	C69.344986,185.551712 69.666664,185.833328 70.000000,186.000000 
"/>
<path fill="none" opacity="1.000000" stroke="#000000" stroke-linecap="round" stroke-linejoin="round" stroke-width="4.000000"
	d="
M88.000000,196.500000 
	C67.500000,196.500000 47.000000,196.500000 26.500000,196.500000 
"/>
<path fill="none" opacity="1.000000" stroke="#000000" stroke-linecap="round" stroke-linejoin="round" stroke-width="3.000000"
	d="
M91.000000,189.500000 
	C103.833336,189.864822 116.665390,190.586136 129.501572,189.518875 
	C131.156799,189.381241 133.043442,189.006485 134.454361,189.607193 
	C137.044800,190.710083 137.085800,188.908798 137.473587,187.492767 
	C138.038849,185.428696 136.343124,183.904144 135.020432,184.123322 
	C120.559998,186.519485 105.955589,183.719086 91.501930,185.515503 
	C91.153267,185.558838 90.833336,185.833344 90.500000,186.000000 
"/>
<path fill="none" opacity="1.000000" stroke="#000000" stroke-linecap="round" stroke-linejoin="round" stroke-width="4.000000"
	d="
M399.000000,172.500000 
	C378.500000,172.500000 358.000000,172.500000 337.500000,172.500000 
"/>
<path fill="none" opacity="1.000000" stroke="#000000" stroke-linecap="round" stroke-linejoin="round" stroke-width="4.000000"
	d="
M24.500000,339.000000 
	C24.500000,327.500000 24.750408,315.992279 24.395500,304.503235 
	C24.215124,298.664124 26.720167,292.517487 22.613529,286.916748 
	C21.708223,285.682098 23.033417,283.914642 24.998871,284.020905 
	C44.326210,285.065369 63.667141,284.280182 82.999748,284.520172 
	C83.585068,284.527435 84.166664,284.833344 84.750000,285.000000 
"/>
<path fill="none" opacity="1.000000" stroke="#000000" stroke-linecap="round" stroke-linejoin="round" stroke-width="2.000000"
	d="
M400.000000,289.500000 
	C400.716003,288.314697 401.866516,288.490082 403.000000,288.491302 
	C415.833344,288.505035 428.666718,288.520142 441.499908,288.474670 
	C443.117096,288.468933 444.599609,288.718414 446.000000,289.500000 
"/>
<path fill="none" opacity="1.000000" stroke="#000000" stroke-linecap="round" stroke-linejoin="round" stroke-width="2.000000"
	d="
M69.000000,288.500000 
	C56.333332,288.500000 43.666664,288.505157 31.000004,288.494781 
	C28.937981,288.493103 26.860735,288.331085 25.000000,289.500000 
"/>
<path fill="none" opacity="1.000000" stroke="#000000" stroke-linecap="round" stroke-linejoin="round" stroke-width="3.000000"
	d="
M440.000000,237.500000 
	C442.087982,229.909622 440.678009,222.165222 440.919891,214.497467 
	C441.016205,211.445160 431.947968,201.969666 428.996857,201.520645 
	C426.403534,201.126083 423.930603,201.674225 422.024139,203.524872 
	C419.284149,206.184677 418.744934,210.590668 415.013245,212.525528 
	C414.745667,212.664230 414.453674,213.230377 414.531494,213.490585 
	C416.000488,218.402206 413.633179,223.686676 416.000000,228.500000 
"/>
<path fill="none" opacity="1.000000" stroke="#000000" stroke-linecap="round" stroke-linejoin="round" stroke-width="3.000000"
	d="
M399.000000,295.500000 
	C399.376434,304.173798 398.310272,312.863312 400.338531,321.537750 
	C401.355133,325.885620 402.050049,330.293976 404.564789,333.955505 
	C408.520996,339.715759 409.225891,346.371277 407.776001,352.446533 
	C404.050629,368.056427 405.432892,383.798279 405.034515,399.500885 
	C404.980194,401.641602 405.154205,403.707581 403.000000,405.000000 
"/>
<path fill="none" opacity="1.000000" stroke="#000000" stroke-linecap="round" stroke-linejoin="round" stroke-width="3.000000"
	d="
M127.000000,286.500000 
	C124.244377,289.661102 124.165703,293.828552 123.685654,297.524109 
	C122.895584,303.606110 120.275375,307.248901 114.543968,309.606873 
	C104.659622,313.673462 101.905090,325.326202 108.526993,333.478088 
	C109.873329,335.135468 111.526779,336.537720 112.000000,338.750000 
"/>
<path fill="none" opacity="1.000000" stroke="#000000" stroke-linecap="round" stroke-linejoin="round" stroke-width="3.000000"
	d="
M95.500008,668.500000 
	C95.666672,669.000000 96.031975,669.525879 95.970764,669.996216 
	C94.680817,679.908752 100.215096,688.958313 99.206520,699.020691 
	C98.247246,708.591248 99.000000,718.333313 99.000000,728.000000 
"/>
<path fill="none" opacity="1.000000" stroke="#000000" stroke-linecap="round" stroke-linejoin="round" stroke-width="6.000000"
	d="
M126.000000,213.000000 
	C127.001709,214.874573 127.542717,216.812607 127.532944,219.000153 
	C127.468979,233.333191 127.823029,247.676468 127.388687,261.996613 
	C127.089203,271.870850 121.011940,276.455505 112.500000,273.000000 
"/>
<path fill="none" opacity="1.000000" stroke="#000000" stroke-linecap="round" stroke-linejoin="round" stroke-width="3.000000"
	d="
M375.500000,668.500000 
	C376.883972,673.848999 376.493469,679.235779 373.831665,683.903992 
	C372.270233,686.642456 372.016815,689.184326 372.009766,692.000000 
	C371.984711,701.999939 371.975159,712.000122 372.022522,721.999878 
	C372.031219,723.833984 372.333344,725.666687 372.500000,727.500000 
"/>
<path fill="none" opacity="1.000000" stroke="#000000" stroke-linecap="round" stroke-linejoin="round" stroke-width="3.000000"
	d="
M399.500000,669.000000 
	C399.451569,674.190308 400.213898,679.512085 396.554077,684.043701 
	C395.999481,684.730347 396.024261,685.999634 396.021606,687.000061 
	C395.988586,699.500000 395.986755,712.000061 396.021759,724.499939 
	C396.025024,725.667053 396.333344,726.833313 396.500000,728.000000 
"/>
<path fill="none" opacity="1.000000" stroke="#000000" stroke-linecap="round" stroke-linejoin="round" stroke-width="3.000000"
	d="
M344.000000,286.500000 
	C346.979553,290.326813 346.814362,295.123688 348.165619,299.448242 
	C349.243042,302.896362 349.542297,306.571716 354.896088,308.318512 
	C367.694946,312.494476 369.444458,327.415924 361.510376,335.010834 
	C360.416046,336.058411 359.047607,336.976196 359.000000,338.750000 
"/>
<path fill="none" opacity="1.000000" stroke="#000000" stroke-linecap="round" stroke-linejoin="round" stroke-width="3.000000"
	d="
M365.000000,273.500000 
	C366.938812,274.400940 368.998138,273.966003 371.000153,273.979370 
	C379.934906,274.038971 384.471130,277.878876 386.562683,286.484772 
	C388.248566,293.421631 388.057404,300.512177 388.986938,307.501740 
	C390.608124,319.692413 393.391693,331.385223 402.500000,340.500000 
"/>
<path fill="none" opacity="1.000000" stroke="#000000" stroke-linecap="round" stroke-linejoin="round" stroke-width="3.000000"
	d="
M47.500000,728.000000 
	C46.906761,718.842773 46.943741,709.588806 46.988823,700.502441 
	C47.036518,690.890198 46.952583,681.160034 47.470818,671.498413 
	C47.599026,669.108215 48.297554,667.876526 51.001354,667.950745 
	C56.830288,668.110840 62.667400,668.054810 68.499687,667.976807 
	C71.389061,667.938171 72.354431,669.497314 71.965332,671.994568 
	C71.285934,676.355042 72.505798,680.443115 74.661804,683.899048 
	C76.228867,686.411011 74.844864,688.373169 74.884811,690.502136 
	C75.119255,702.997742 75.000000,715.500000 75.000000,728.000000 
"/>
<path fill="none" opacity="1.000000" stroke="#000000" stroke-linecap="round" stroke-linejoin="round" stroke-width="3.000000"
	d="
M239.000000,162.000000 
	C244.166672,162.000000 249.333511,161.974045 254.499939,162.009689 
	C257.604706,162.031113 259.260620,160.861298 258.353058,157.343155 
	C252.171158,157.066681 245.835571,156.783340 239.500000,156.500000 
"/>
<path fill="none" opacity="1.000000" stroke="#000000" stroke-linecap="round" stroke-linejoin="round" stroke-width="6.000000"
	d="
M192.000000,228.000000 
	C196.939987,226.549744 202.023117,227.433212 207.001511,227.371170 
	C229.331375,227.092957 251.666702,227.234024 273.999939,227.282349 
	C275.667114,227.285950 277.333344,227.750000 279.000000,228.000000 
"/>
<path fill="none" opacity="1.000000" stroke="#000000" stroke-linecap="round" stroke-linejoin="round" stroke-width="3.000000"
	d="
M351.500000,728.000000 
	C351.540314,707.995117 351.143036,687.982910 352.315552,667.750000 
	C376.170135,667.750000 399.837067,667.750000 422.520447,667.750000 
	C424.416809,669.183289 423.978058,670.165588 423.979340,671.000061 
	C424.006683,688.666687 424.010773,706.333313 423.978424,723.999939 
	C423.975983,725.333557 423.666656,726.666687 423.500000,728.000000 
"/>
<path fill="none" opacity="1.000000" stroke="#000000" stroke-linecap="round" stroke-linejoin="round" stroke-width="2.000000"
	d="
M135.000000,166.500000 
	C133.301865,165.423050 131.408020,165.484741 129.499969,165.489578 
	C120.333366,165.512772 111.166664,165.500000 102.000000,165.500000 
	C93.500000,165.500000 85.000000,165.500000 76.500000,165.500000 
	C61.333332,165.500000 46.166664,165.504379 31.000004,165.494858 
	C28.937986,165.493561 26.860735,165.331085 25.000000,166.500000 
"/>
<path fill="none" opacity="1.000000" stroke="#000000" stroke-linecap="round" stroke-linejoin="round" stroke-width="2.000000"
	d="
M275.500000,613.000000 
	C262.325317,612.532654 249.141403,611.484314 236.002335,613.515076 
	C234.173721,613.797729 232.863815,612.388794 230.998734,612.417297 
	C220.001297,612.585327 208.999969,612.491333 198.000061,612.521423 
	C197.332932,612.523254 196.666656,612.833313 195.999985,612.999939 
"/>
<path fill="none" opacity="1.000000" stroke="#000000" stroke-linecap="round" stroke-linejoin="round" stroke-width="3.000000"
	d="
M206.500000,226.500000 
	C205.681335,222.606659 205.766022,219.168808 208.915390,215.918030 
	C212.713058,211.998032 212.081512,207.070511 207.999985,203.000015 
	C204.174423,199.184769 199.081360,198.988876 195.000015,202.500015 
	C191.298737,205.684158 190.287247,212.125534 193.035172,215.974899 
	C193.980698,217.299438 195.333328,218.333328 196.500000,219.500000 
"/>
<path fill="none" opacity="1.000000" stroke="#000000" stroke-linecap="round" stroke-linejoin="round" stroke-width="3.000000"
	d="
M238.500000,200.000000 
	C237.543716,186.500000 238.507874,172.989456 238.280380,159.503708 
	C238.128586,150.505325 239.315460,141.493713 238.068451,132.490524 
	C237.638092,129.383453 237.647964,126.117142 238.084763,123.011925 
	C238.698410,118.649391 236.847610,118.291161 233.000000,119.898460 
	C233.000000,146.331268 233.000000,173.165634 233.000000,200.000000 
"/>
<path fill="none" opacity="1.000000" stroke="#000000" stroke-linecap="round" stroke-linejoin="round" stroke-width="3.000000"
	d="
M231.500000,156.500015 
	C226.500000,156.666672 221.500870,156.876587 216.499542,156.977325 
	C214.666382,157.014267 213.049088,157.346481 213.049088,159.500000 
	C213.049088,161.653519 214.663406,162.028809 216.500107,162.014267 
	C221.666458,161.973358 226.833328,162.000000 232.000000,162.000000 
"/>
<path fill="none" opacity="1.000000" stroke="#000000" stroke-linecap="round" stroke-linejoin="round" stroke-width="3.000000"
	d="
M80.000000,93.000000 
	C79.930115,96.833336 81.133514,100.651466 80.038979,104.511055 
	C79.776497,105.436615 79.571037,106.980438 80.067848,107.424011 
	C84.051994,110.981255 83.078659,115.675720 82.898247,119.995750 
	C82.720169,124.260056 84.055016,128.287689 84.035156,132.500168 
	C83.991272,141.805984 82.591095,151.309616 87.500000,160.000000 
"/>
<path fill="none" opacity="1.000000" stroke="#000000" stroke-linecap="round" stroke-linejoin="round" stroke-width="3.000000"
	d="
M25.000000,184.000000 
	C25.245340,180.336914 24.978451,176.674225 25.318562,172.983276 
	C25.538836,170.592850 25.294809,167.839462 23.577782,165.444244 
	C21.362108,162.353424 22.343283,161.466415 25.950188,160.340439 
	C28.511477,159.540863 30.246532,161.168152 32.503117,161.090485 
	C45.495506,160.643295 58.504391,160.887787 71.502632,160.752075 
	C78.962631,160.674164 86.514206,160.842117 94.000130,160.848465 
	C106.494019,160.859070 119.045609,162.183823 131.504242,160.024429 
	C133.649109,159.652679 136.050293,160.129105 137.344330,161.633865 
	C138.146606,162.566803 137.184326,164.520889 136.187408,166.117050 
	C135.045486,167.945343 134.736954,170.774124 135.133667,172.975922 
	C135.802048,176.685471 135.180649,180.340271 135.500000,184.000000 
"/>
<path fill="none" opacity="1.000000" stroke="#000000" stroke-linecap="round" stroke-linejoin="round" stroke-width="4.000000"
	d="
M71.500000,668.500000 
	C72.501518,668.587158 72.842590,667.430725 74.000435,667.438904 
	C87.499756,667.534424 101.000336,667.545349 114.499603,667.446167 
	C116.316643,667.432800 117.787064,668.398010 119.500000,668.590515 
	C119.500000,688.333313 119.500000,708.166687 119.500000,728.000000 
"/>
<path fill="none" opacity="1.000000" stroke="#000000" stroke-linecap="round" stroke-linejoin="round" stroke-width="3.000000"
	d="
M446.500000,167.000000 
	C446.500000,171.166672 446.445557,175.334351 446.524261,179.499542 
	C446.560608,181.423248 446.304474,183.208786 447.868317,185.108398 
	C449.786346,187.438309 448.468964,189.358353 445.500305,189.506363 
	C431.999603,190.179459 418.503662,189.997513 404.995728,189.683304 
	C403.133850,189.639984 402.291046,188.659790 402.121857,187.970108 
	C401.310974,184.664536 399.687164,184.234955 396.471954,184.854492 
	C393.097260,185.504776 389.359100,185.611343 386.035614,184.845428 
	C381.872528,183.886002 380.740570,185.259048 381.000000,189.000000 
"/>
<path fill="none" opacity="1.000000" stroke="#000000" stroke-linecap="round" stroke-linejoin="round" stroke-width="3.000000"
	d="
M110.500000,211.500000 
	C103.951584,218.366623 106.661346,227.007370 106.013039,235.001053 
	C105.919029,236.160110 106.043159,237.335190 105.993050,238.499695 
	C105.648369,246.511200 105.652351,254.543518 106.633942,262.483429 
	C107.054008,265.881317 110.949242,268.146851 110.857544,272.035675 
	C110.167587,272.171570 109.333794,272.335785 108.500000,272.500000 
"/>
<path fill="none" opacity="1.000000" stroke="#000000" stroke-linecap="round" stroke-linejoin="round" stroke-width="3.000000"
	d="
M447.000000,385.500000 
	C439.856079,386.644073 432.660583,385.635406 425.501099,386.020538 
	C422.001404,386.208771 418.455353,385.395599 415.000000,386.500000 
"/>
<path fill="none" opacity="1.000000" stroke="#000000" stroke-linecap="round" stroke-linejoin="round" stroke-width="3.000000"
	d="
M56.000000,389.500000 
	C47.183289,390.547668 38.331409,389.737183 29.500231,390.007568 
	C27.660002,390.063904 25.771816,389.656647 24.000000,390.500000 
"/>
<path fill="none" opacity="1.000000" stroke="#000000" stroke-linecap="round" stroke-linejoin="round" stroke-width="3.000000"
	d="
M447.000000,390.500000 
	C440.858093,389.417389 434.664612,390.252289 428.499725,390.006744 
	C424.000305,389.827545 419.472717,390.403534 415.000000,389.500000 
"/>
<path fill="none" opacity="1.000000" stroke="#000000" stroke-linecap="round" stroke-linejoin="round" stroke-width="3.000000"
	d="
M63.000000,340.500000 
	C57.192722,339.421356 51.332714,340.168427 45.499264,340.031311 
	C39.502579,339.890320 33.500000,340.000000 27.500000,340.000000 
	C21.828524,340.000000 16.157045,340.000000 10.500000,340.000000 
	C10.500000,344.500000 10.500000,348.500000 10.500000,353.500000 
	C20.644854,353.500000 30.884533,354.153320 40.970966,353.194550 
	C45.311012,352.782043 49.307274,353.786530 53.504879,353.649261 
	C66.158020,353.235626 78.833351,353.509888 91.499977,353.488098 
	C93.174500,353.485199 94.896797,353.801270 96.500000,353.000000 
"/>
<path fill="none" opacity="1.000000" stroke="#000000" stroke-linecap="round" stroke-linejoin="round" stroke-width="3.000000"
	d="
M408.500000,340.500000 
	C419.317963,339.335144 430.168243,340.353333 441.001038,340.035095 
	C447.499542,339.844116 454.008240,340.000000 460.215759,340.000000 
	C460.589905,341.192688 460.978577,341.847992 460.972778,342.499756 
	C460.867584,354.299591 462.507874,353.847046 451.000671,353.479156 
	C443.497894,353.239319 435.970703,354.108612 428.474670,352.628235 
	C426.644806,352.266815 424.500000,353.500000 422.500000,354.000000 
"/>
<path fill="none" opacity="1.000000" stroke="#000000" stroke-linecap="round" stroke-linejoin="round" stroke-width="3.000000"
	d="
M360.000000,210.500000 
	C364.776581,214.861481 365.345520,220.409973 365.087769,226.503708 
	C364.735931,234.822159 365.059570,243.167236 364.980438,251.499817 
	C364.920929,257.761871 366.292480,264.379822 361.000000,269.500000 
"/>
<path fill="none" opacity="1.000000" stroke="#000000" stroke-linecap="round" stroke-linejoin="round" stroke-width="3.000000"
	d="
M423.000000,210.500000 
	C427.503357,215.140396 428.386169,220.731415 428.101227,227.004593 
	C427.700775,235.819733 427.972687,244.666794 428.009827,253.499954 
	C428.033722,259.185883 428.817627,265.037750 424.000000,269.500000 
"/>
<path fill="none" opacity="1.000000" stroke="#000000" stroke-linecap="round" stroke-linejoin="round" stroke-width="3.000000"
	d="
M319.000000,450.000000 
	C319.000000,475.333344 319.000000,500.666656 319.000000,526.000000 
"/>
<path fill="none" opacity="1.000000" stroke="#000000" stroke-linecap="round" stroke-linejoin="round" stroke-width="3.000000"
	d="
M55.000000,366.500000 
	C46.852306,367.596252 38.664478,366.719940 30.499773,366.993225 
	C28.489222,367.060516 26.454973,366.792999 24.116198,367.715057 
	C21.802530,363.353058 18.000118,359.913269 16.500000,355.000000 
"/>
<path fill="none" opacity="1.000000" stroke="#000000" stroke-linecap="round" stroke-linejoin="round" stroke-width="6.000000"
	d="
M32.500000,217.500000 
	C32.500000,230.333328 32.829666,243.178894 32.354267,255.994598 
	C32.132484,261.973389 33.762386,267.425171 35.116665,272.971527 
	C36.026127,276.696136 38.871216,279.252655 43.001839,279.464111 
	C47.143547,279.676117 49.604908,277.133636 52.068905,274.055145 
	C59.781582,264.419037 55.711620,253.468170 56.000000,243.000000 
"/>
<path fill="none" opacity="1.000000" stroke="#000000" stroke-linecap="round" stroke-linejoin="round" stroke-width="3.000000"
	d="
M417.000000,366.500000 
	C421.129272,367.601837 425.334381,366.801178 429.500885,366.979218 
	C435.330719,367.228302 441.166656,367.333344 447.000000,367.500000 
"/>
<path fill="none" opacity="1.000000" stroke="#000000" stroke-linecap="round" stroke-linejoin="round" stroke-width="2.000000"
	d="
M49.000000,354.500000 
	C49.333332,355.500000 49.380939,356.780853 50.044651,357.456116 
	C56.010872,363.526093 56.993816,370.919861 56.587620,379.004395 
	C56.186508,386.987610 56.500000,395.006714 56.500000,403.347839 
	C46.522053,404.028046 35.971889,402.781219 25.500000,404.000000 
"/>
<path fill="none" opacity="1.000000" stroke="#000000" stroke-linecap="round" stroke-linejoin="round" stroke-width="3.000000"
	d="
M359.500000,208.500000 
	C360.310364,210.436783 358.563568,212.364441 357.879700,212.819046 
	C354.240143,215.238480 355.022308,218.696274 355.012329,222.000031 
	C354.979523,232.833267 355.139435,243.669205 354.942719,254.498962 
	C354.840485,260.126038 354.997894,265.522064 359.000000,270.000000 
"/>
<path fill="none" opacity="1.000000" stroke="#000000" stroke-linecap="round" stroke-linejoin="round" stroke-width="3.000000"
	d="
M48.000000,210.000000 
	C42.758404,215.510544 44.061558,222.411285 44.015030,229.000107 
	C43.953835,237.666351 44.213810,246.340439 43.926056,254.997543 
	C43.728878,260.929596 44.303135,266.425171 48.500000,271.000000 
"/>
<path fill="none" opacity="1.000000" stroke="#000000" stroke-linecap="round" stroke-linejoin="round" stroke-width="2.000000"
	d="
M54.000000,242.500000 
	C52.895351,248.641312 53.864002,254.841019 53.479805,260.998749 
	C53.145172,266.362152 49.784515,270.367889 46.368603,273.871918 
	C43.415874,276.900787 39.964321,275.014679 37.000000,269.500000 
"/>
<path fill="none" opacity="1.000000" stroke="#000000" stroke-linecap="round" stroke-linejoin="round" stroke-width="3.000000"
	d="
M108.500000,210.000000 
	C114.223984,211.560471 116.041992,214.323059 116.014313,221.000061 
	C115.963905,233.166519 115.806442,245.337906 116.093834,257.497772 
	C116.211243,262.465576 115.122078,266.717041 112.000000,270.500000 
"/>
<path fill="none" opacity="1.000000" stroke="#000000" stroke-linecap="round" stroke-linejoin="round" stroke-width="2.000000"
	d="
M445.500000,404.000000 
	C435.666656,402.909485 425.833344,403.817230 415.414490,403.369476 
	C413.061676,398.775360 414.842102,392.967010 414.266571,387.472076 
	C413.920593,384.168640 414.595306,380.472260 414.413788,377.004517 
	C414.066956,370.377228 415.566498,364.610016 419.836517,359.366852 
	C420.658813,358.357147 422.777802,357.141968 422.000000,355.000000 
"/>
<path fill="none" opacity="1.000000" stroke="#000000" stroke-linecap="round" stroke-linejoin="round" stroke-width="2.000000"
	d="
M124.000000,212.250000 
	C124.751137,212.502274 125.539856,213.130127 125.528183,211.499802 
	C125.493752,206.691803 122.448143,202.562958 118.000000,201.500000 
	C114.656235,200.700943 109.502411,203.498276 108.128578,207.543671 
	C107.410072,209.659348 106.652107,211.028931 104.500000,211.500000 
"/>
<path fill="none" opacity="1.000000" stroke="#000000" stroke-linecap="round" stroke-linejoin="round" stroke-width="3.000000"
	d="
M239.500000,135.500000 
	C243.337402,135.779984 247.174820,136.059967 250.980530,136.337646 
	C251.525665,140.884659 251.526230,140.914658 247.499802,140.989777 
	C244.667465,141.042633 241.833328,141.000000 239.000000,141.000000 
"/>
<path fill="none" opacity="1.000000" stroke="#000000" stroke-linecap="round" stroke-linejoin="round" stroke-width="4.000000"
	d="
M372.500000,284.500000 
	C363.168579,284.773956 353.816895,283.913483 344.500000,285.000000 
"/>
<path fill="none" opacity="1.000000" stroke="#000000" stroke-linecap="round" stroke-linejoin="round" stroke-width="2.000000"
	d="
M33.500000,217.000000 
	C36.271526,215.713623 37.265678,213.057480 37.915501,210.478714 
	C38.637798,207.612335 39.980186,206.066223 42.999374,205.978500 
	C45.693005,205.900208 46.980587,206.696381 48.757854,209.325714 
	C52.836906,215.360336 53.865810,221.586594 53.566353,228.502869 
	C53.430176,231.648010 52.948338,234.879913 54.000000,238.000000 
"/>
<path fill="none" opacity="1.000000" stroke="#000000" stroke-linecap="round" stroke-linejoin="round" stroke-width="4.000000"
	d="
M134.500000,286.500000 
	C122.782471,283.777832 110.868240,284.547028 99.000000,284.500000 
"/>
<path fill="none" opacity="1.000000" stroke="#000000" stroke-linecap="round" stroke-linejoin="round" stroke-width="2.000000"
	d="
M104.000000,245.500000 
	C102.877655,252.644440 103.858070,259.839233 103.478348,266.998840 
	C103.302849,270.308044 106.726349,269.773651 108.000000,271.500000 
"/>
<path fill="none" opacity="1.000000" stroke="#000000" stroke-linecap="round" stroke-linejoin="round" stroke-width="3.000000"
	d="
M302.250000,622.000000 
	C300.012207,618.716797 301.063385,615.002014 301.083923,611.500488 
	C301.107788,607.447205 299.552338,605.628174 295.499573,605.995361 
	C293.004150,606.221436 290.445312,605.513184 288.000000,606.500000 
"/>
<path fill="none" opacity="1.000000" stroke="#000000" stroke-linecap="round" stroke-linejoin="round" stroke-width="3.000000"
	d="
M232.000000,135.500000 
	C228.247253,136.760056 224.260788,135.332428 220.479507,136.323517 
	C219.747482,137.833328 219.747482,139.166672 220.636368,141.000000 
	C224.318848,141.000000 228.159424,141.000000 232.000000,141.000000 
"/>
<path fill="none" opacity="1.000000" stroke="#000000" stroke-linecap="round" stroke-linejoin="round" stroke-width="2.000000"
	d="
M104.000000,212.500000 
	C103.178574,220.666672 103.185806,228.833328 104.000000,237.000000 
"/>
<path fill="none" opacity="1.000000" stroke="#000000" stroke-linecap="round" stroke-linejoin="round" stroke-width="3.000000"
	d="
M152.500000,496.000000 
	C152.333328,504.333344 152.146805,512.666382 152.016739,521.000244 
	C151.990631,522.672852 151.698730,524.396790 152.500000,526.000000 
"/>
<path fill="none" opacity="1.000000" stroke="#000000" stroke-linecap="round" stroke-linejoin="round" stroke-width="7.000000"
	d="
M89.000000,659.000000 
	C97.000000,659.000000 105.000000,659.000000 113.000000,659.000000 
"/>
<path fill="none" opacity="1.000000" stroke="#000000" stroke-linecap="round" stroke-linejoin="round" stroke-width="4.000000"
	d="
M116.000000,404.500000 
	C116.403709,407.332092 114.812141,407.518555 112.501038,407.559113 
	C104.667664,407.696533 96.818169,406.926025 88.996246,407.971924 
	C87.227249,408.208466 85.686234,407.122528 85.608109,405.494812 
	C85.508171,403.412445 86.752602,403.312775 89.000259,403.315948 
	C97.494133,403.327942 106.017982,404.083862 114.500000,403.000000 
"/>
<path fill="none" opacity="1.000000" stroke="#000000" stroke-linecap="round" stroke-linejoin="round" stroke-width="7.000000"
	d="
M356.500000,666.500000 
	C356.500000,664.161499 356.500000,661.822998 356.500000,659.000000 
	C365.326660,659.000000 373.663330,659.000000 382.000000,659.000000 
"/>
<path fill="none" opacity="1.000000" stroke="#000000" stroke-linecap="round" stroke-linejoin="round" stroke-width="4.000000"
	d="
M385.500000,404.500000 
	C385.940308,407.273651 384.176666,408.146027 382.004517,407.949951 
	C374.326263,407.256836 366.673737,407.256805 358.995483,407.949921 
	C356.823334,408.145996 355.059692,407.273651 355.500000,404.500000 
"/>
<path fill="none" opacity="1.000000" stroke="#000000" stroke-linecap="round" stroke-linejoin="round" stroke-width="3.000000"
	d="
M289.500000,524.000000 
	C287.420563,528.166687 286.313843,532.108826 289.386200,536.578247 
	C291.465607,539.603149 293.022736,540.020691 295.500793,537.500793 
	C296.360596,536.626343 297.225769,535.755310 299.325134,536.129517 
	C296.696198,534.123840 293.543793,528.657959 292.435150,525.522949 
	C292.108795,524.600037 291.659393,523.134094 290.000000,523.500000 
"/>
<path fill="none" opacity="1.000000" stroke="#000000" stroke-linecap="round" stroke-linejoin="round" stroke-width="3.000000"
	d="
M97.500000,684.500000 
	C92.361923,685.553040 87.163078,684.732056 82.000412,685.007690 
	C79.996841,685.114685 77.938812,684.599060 76.000000,685.500000 
"/>
<path fill="none" opacity="1.000000" stroke="#000000" stroke-linecap="round" stroke-linejoin="round" stroke-width="3.000000"
	d="
M374.500000,684.500000 
	C381.479004,685.548950 388.502045,684.746887 395.500000,685.000000 
"/>
<path fill="none" opacity="1.000000" stroke="#000000" stroke-linecap="round" stroke-linejoin="round" stroke-width="3.000000"
	d="
M95.000000,678.500000 
	C89.862122,679.559082 84.663551,678.739197 79.500122,679.002380 
	C77.660744,679.096130 75.771812,678.656616 74.000000,679.500000 
"/>
<path fill="none" opacity="1.000000" stroke="#000000" stroke-linecap="round" stroke-linejoin="round" stroke-width="3.000000"
	d="
M377.000000,678.500000 
	C381.800751,679.611694 386.671631,678.701172 391.499573,679.006592 
	C393.502106,679.133301 395.500000,679.333313 397.500000,679.500000 
"/>
<path fill="none" opacity="1.000000" stroke="#000000" stroke-linecap="round" stroke-linejoin="round" stroke-width="3.000000"
	d="
M445.500000,700.500000 
	C438.666656,699.348877 431.833344,700.529907 425.000000,700.500000 
"/>
<path fill="none" opacity="1.000000" stroke="#000000" stroke-linecap="round" stroke-linejoin="round" stroke-width="5.000000"
	d="
M151.500000,471.500000 
	C147.501709,469.062073 143.327896,468.817963 139.000000,470.318298 
	C139.000000,480.000000 138.999146,489.500000 139.000397,499.000000 
	C139.000916,502.954865 142.896088,505.468842 147.410522,503.312653 
	C151.180084,501.512207 153.791138,501.654663 157.588013,503.296478 
	C163.282974,505.759003 165.660568,502.702972 165.749466,496.503571 
	C165.806381,492.535400 165.312408,488.519867 165.880234,484.483154 
	C166.431976,480.560760 165.993744,476.500000 166.002365,472.500000 
	C166.007507,470.117828 164.265533,469.796600 162.499802,469.501190 
	C158.805298,468.883148 155.630096,470.353729 152.500000,472.000000 
"/>
<path fill="none" opacity="1.000000" stroke="#000000" stroke-linecap="round" stroke-linejoin="round" stroke-width="4.000000"
	d="
M317.000000,471.000000 
	C314.739014,468.710602 311.635559,469.459747 308.981018,469.179871 
	C306.825531,468.952576 305.234985,470.686859 305.429108,473.504883 
	C305.599731,475.981506 305.822449,478.601868 305.942017,480.977753 
	C306.158447,485.278564 303.998657,489.809692 306.452301,494.027740 
	C306.848083,494.708099 306.333344,495.655151 306.089050,496.524994 
	C304.354492,502.702393 307.179169,505.342346 313.484192,503.447357 
	C315.089630,502.964844 316.500000,501.833313 318.000000,500.999969 
"/>
<path fill="none" opacity="1.000000" stroke="#000000" stroke-linecap="round" stroke-linejoin="round" stroke-width="3.000000"
	d="
M66.500000,368.000000 
	C65.698730,369.603210 66.016144,371.325439 66.012062,373.000031 
	C65.987701,382.999969 66.000000,393.000000 66.000000,403.000000 
"/>
<path fill="none" opacity="1.000000" stroke="#000000" stroke-linecap="round" stroke-linejoin="round" stroke-width="2.000000"
	d="
M392.500000,360.000000 
	C394.455139,363.406158 395.504578,367.056305 395.502167,371.000000 
	C395.495789,381.500000 395.550507,392.000458 395.455566,402.499603 
	C395.437469,404.498505 395.404083,405.777832 397.991791,406.072113 
	C403.186035,406.662842 408.333344,407.666687 413.500000,408.500000 
"/>
<path fill="none" opacity="1.000000" stroke="#000000" stroke-linecap="round" stroke-linejoin="round" stroke-width="4.000000"
	d="
M375.000000,353.000000 
	C379.463165,354.161224 384.005402,353.179474 388.500305,353.495483 
	C390.172729,353.613068 391.896790,353.198730 393.500000,354.000000 
"/>
<path fill="none" opacity="1.000000" stroke="#000000" stroke-linecap="round" stroke-linejoin="round" stroke-width="3.000000"
	d="
M390.500000,92.000000 
	C385.568115,89.790276 380.455780,90.597450 375.521271,91.604225 
	C371.418701,92.441261 370.321686,95.721863 372.583771,99.449165 
	C373.220367,100.498161 373.430756,101.377724 373.522430,102.498161 
	C374.050354,108.950729 374.664581,109.500000 381.000000,109.500000 
	C383.500000,109.500000 386.000000,109.500000 388.500000,109.500000 
"/>
<path fill="none" opacity="1.000000" stroke="#000000" stroke-linecap="round" stroke-linejoin="round" stroke-width="3.000000"
	d="
M396.500000,661.000000 
	C402.500000,661.000000 408.500000,661.000000 414.500000,661.000000 
"/>
<path fill="none" opacity="1.000000" stroke="#000000" stroke-linecap="round" stroke-linejoin="round" stroke-width="5.000000"
	d="
M307.000000,486.000000 
	C313.333344,486.000000 319.681885,486.270813 325.995270,485.915894 
	C331.214600,485.622498 333.788239,487.327362 331.918427,493.475189 
	C331.652344,494.350037 331.341736,495.128143 331.510712,495.997925 
	C332.794800,502.608917 331.533173,503.981720 324.995605,503.569580 
	C323.367950,503.467010 322.350861,502.453308 321.000000,502.000000 
"/>
<path fill="none" opacity="1.000000" stroke="#000000" stroke-linecap="round" stroke-linejoin="round" stroke-width="3.000000"
	d="
M78.500000,92.000000 
	C73.909081,89.712326 69.138412,90.472870 64.518478,91.577293 
	C60.431530,92.554283 59.193657,95.815681 61.609829,99.426506 
	C62.807762,101.216751 62.324669,102.815590 62.474884,104.502235 
	C62.824608,108.429070 64.452766,109.745483 68.501648,109.531120 
	C71.493263,109.372726 74.500000,109.500000 77.500000,109.500000 
"/>
<path fill="none" opacity="1.000000" stroke="#000000" stroke-linecap="round" stroke-linejoin="round" stroke-width="3.000000"
	d="
M392.500000,92.000000 
	C397.092194,89.747910 401.893860,90.488647 406.476715,91.596291 
	C411.861267,92.897690 412.396362,96.268387 408.500000,101.500000 
"/>
<path fill="none" opacity="1.000000" stroke="#000000" stroke-linecap="round" stroke-linejoin="round" stroke-width="3.000000"
	d="
M394.000000,109.000000 
	C397.333344,109.166664 400.665588,109.360512 404.000305,109.492447 
	C407.434204,109.628311 408.692078,107.369675 408.957550,104.496078 
	C409.307190,100.711685 406.514435,100.930298 404.000122,101.004272 
	C394.002106,101.298424 383.984039,100.376328 374.000000,101.500000 
"/>
<path fill="none" opacity="1.000000" stroke="#000000" stroke-linecap="round" stroke-linejoin="round" stroke-width="3.000000"
	d="
M351.500000,354.500000 
	C351.306671,357.061523 353.084503,358.863922 353.922455,361.029999 
	C357.253571,369.640869 358.221802,378.482117 355.517700,387.505310 
	C355.380188,387.964111 355.500000,388.500000 355.500000,389.000000 
"/>
<path fill="none" opacity="1.000000" stroke="#000000" stroke-linecap="round" stroke-linejoin="round" stroke-width="3.000000"
	d="
M394.000000,366.500000 
	C391.000000,367.731873 388.000000,366.584900 385.066223,366.307617 
	C383.089844,372.049957 383.660980,383.758362 386.000000,387.000000 
"/>
<path fill="none" opacity="1.000000" stroke="#000000" stroke-linecap="round" stroke-linejoin="round" stroke-width="3.000000"
	d="
M24.500000,368.000000 
	C23.371225,373.638367 24.293926,379.337067 24.000000,385.000000 
"/>
<path fill="none" opacity="1.000000" stroke="#000000" stroke-linecap="round" stroke-linejoin="round" stroke-width="3.000000"
	d="
M57.500000,661.000000 
	C63.166668,661.000000 68.833336,661.000000 74.500000,661.000000 
"/>
<path fill="none" opacity="1.000000" stroke="#000000" stroke-linecap="round" stroke-linejoin="round" stroke-width="3.000000"
	d="
M81.500000,92.000000 
	C86.092186,89.747910 90.897835,90.477966 95.475235,91.600945 
	C100.640083,92.868034 101.068207,95.759628 97.500000,101.500000 
"/>
<path fill="none" opacity="1.000000" stroke="#000000" stroke-linecap="round" stroke-linejoin="round" stroke-width="3.000000"
	d="
M227.500000,214.000000 
	C227.262070,210.833328 228.619019,207.715240 227.580688,204.474152 
	C227.207672,203.309845 227.854980,201.849030 229.011246,201.015594 
	C230.358444,200.044510 241.806946,200.529266 243.005753,201.492844 
	C244.187241,202.442474 244.046371,203.741776 243.989807,204.999542 
	C243.854797,208.000961 243.666672,211.000000 243.500000,214.000000 
"/>
<path fill="none" opacity="1.000000" stroke="#000000" stroke-linecap="round" stroke-linejoin="round" stroke-width="3.000000"
	d="
M88.000000,368.500000 
	C88.000000,374.000000 88.000000,379.500000 88.000000,385.000000 
"/>
<path fill="none" opacity="1.000000" stroke="#000000" stroke-linecap="round" stroke-linejoin="round" stroke-width="3.000000"
	d="
M335.500000,287.500000 
	C336.475891,294.817139 335.323364,302.358002 337.958588,309.515259 
	C338.800476,311.801697 340.071198,312.893188 342.500000,312.500000 
"/>
<path fill="none" opacity="1.000000" stroke="#000000" stroke-linecap="round" stroke-linejoin="round" stroke-width="2.000000"
	d="
M397.500000,656.500000 
	C402.833344,658.137268 408.166656,658.137268 413.500000,656.500000 
"/>
<path fill="none" opacity="1.000000" stroke="#000000" stroke-linecap="round" stroke-linejoin="round" stroke-width="2.000000"
	d="
M58.000000,657.000000 
	C63.333332,657.823059 68.666664,657.823059 74.000000,657.000000 
"/>
<path fill="none" opacity="1.000000" stroke="#000000" stroke-linecap="round" stroke-linejoin="round" stroke-width="4.000000"
	d="
M88.000000,172.500000 
	C82.666664,172.500000 77.333336,172.500000 72.000000,172.500000 
"/>
<path fill="none" opacity="1.000000" stroke="#000000" stroke-linecap="round" stroke-linejoin="round" stroke-width="3.000000"
	d="
M215.000000,226.500000 
	C216.539749,219.136261 222.559708,215.800827 228.569672,214.274323 
	C236.617020,212.230347 244.809143,212.949387 251.614456,219.378845 
	C253.888718,221.527512 256.488159,222.984650 256.500000,226.500000 
"/>
<path fill="none" opacity="1.000000" stroke="#000000" stroke-linecap="round" stroke-linejoin="round" stroke-width="3.000000"
	d="
M280.000000,228.000000 
	C277.836853,230.618057 279.155060,233.681839 279.098083,236.501984 
	C279.033356,239.705765 278.600616,242.402496 275.500000,244.000000 
"/>
<path fill="none" opacity="1.000000" stroke="#000000" stroke-linecap="round" stroke-linejoin="round" stroke-width="2.000000"
	d="
M278.500000,405.000000 
	C282.425293,411.043823 280.725922,417.841309 274.500000,421.000000 
	C271.482574,418.753845 267.072968,423.468536 264.500000,419.000000 
"/>
<path fill="none" opacity="1.000000" stroke="#000000" stroke-linecap="round" stroke-linejoin="round" stroke-width="3.000000"
	d="
M72.000000,339.500000 
	C72.833336,339.666656 73.666252,339.975983 74.500061,339.978424 
	C85.499969,340.010834 96.554993,340.662842 107.479797,339.756470 
	C114.255333,339.194397 120.833336,340.541290 127.500000,340.000000 
"/>
<path fill="none" opacity="1.000000" stroke="#000000" stroke-linecap="round" stroke-linejoin="round" stroke-width="3.000000"
	d="
M72.500000,184.500000 
	C77.500000,185.083130 82.500000,185.449936 87.500000,184.500000 
"/>
<path fill="none" opacity="1.000000" stroke="#000000" stroke-linecap="round" stroke-linejoin="round" stroke-width="4.000000"
	d="
M384.500000,196.500000 
	C389.328888,196.795837 394.198761,195.903015 399.000000,197.000000 
"/>
<path fill="none" opacity="1.000000" stroke="#000000" stroke-linecap="round" stroke-linejoin="round" stroke-width="3.000000"
	d="
M151.999985,449.500000 
	C152.166656,458.833344 152.333328,468.166656 152.499985,477.500000 
"/>
<path fill="none" opacity="1.000000" stroke="#000000" stroke-linecap="round" stroke-linejoin="round" stroke-width="3.000000"
	d="
M123.000000,211.000000 
	C118.996719,204.988708 115.135803,204.140610 111.532028,208.526321 
	C111.286766,208.824783 111.500000,209.500000 111.500000,210.000000 
"/>
<path fill="none" opacity="1.000000" stroke="#000000" stroke-linecap="round" stroke-linejoin="round" stroke-width="3.000000"
	d="
M347.500000,272.500000 
	C344.804260,273.608032 343.832336,275.672211 343.975739,278.501221 
	C344.094330,280.840454 344.000000,283.190491 344.000000,286.000000 
	C341.358948,286.000000 339.179474,286.000000 337.000000,286.000000 
"/>
<path fill="none" opacity="1.000000" stroke="#000000" stroke-linecap="round" stroke-linejoin="round" stroke-width="3.000000"
	d="
M97.500000,341.000000 
	C96.227905,347.147675 96.973267,353.159180 99.027954,358.990143 
	C102.087471,367.672729 100.741676,376.635834 101.000000,385.500000 
"/>
<path fill="none" opacity="1.000000" stroke="#000000" stroke-linecap="round" stroke-linejoin="round" stroke-width="3.000000"
	d="
M107.500000,273.000000 
	C105.021141,274.835785 102.174393,273.853943 99.498314,273.955536 
	C95.952042,274.090179 92.627243,274.842285 89.500000,276.500000 
"/>
<path fill="none" opacity="1.000000" stroke="#000000" stroke-linecap="round" stroke-linejoin="round" stroke-width="3.000000"
	d="
M276.500000,715.500000 
	C284.333344,716.803284 292.166656,716.058533 300.000000,715.500000 
"/>
<path fill="none" opacity="1.000000" stroke="#000000" stroke-linecap="round" stroke-linejoin="round" stroke-width="2.000000"
	d="
M46.000000,700.500000 
	C39.166668,700.500000 32.333332,700.500000 25.500000,700.500000 
"/>
<path fill="none" opacity="1.000000" stroke="#000000" stroke-linecap="round" stroke-linejoin="round" stroke-width="3.000000"
	d="
M359.000000,207.500000 
	C353.658234,204.545395 350.986053,205.638550 348.000000,212.000000 
"/>
<path fill="none" opacity="1.000000" stroke="#000000" stroke-linecap="round" stroke-linejoin="round" stroke-width="3.000000"
	d="
M171.500000,716.000000 
	C176.329147,716.288208 181.199158,715.391052 186.000000,716.500000 
"/>
<path fill="none" opacity="1.000000" stroke="#000000" stroke-linecap="round" stroke-linejoin="round" stroke-width="3.000000"
	d="
M370.500000,385.500000 
	C374.833344,385.909668 379.166656,386.391846 383.500000,385.500000 
"/>
<path fill="none" opacity="1.000000" stroke="#000000" stroke-linecap="round" stroke-linejoin="round" stroke-width="2.000000"
	d="
M401.500000,189.000000 
	C396.428467,190.808105 391.101135,188.599762 385.996185,189.985992 
	C385.022736,190.250351 384.000000,190.333344 383.000000,190.500000 
"/>
<path fill="none" opacity="1.000000" stroke="#000000" stroke-linecap="round" stroke-linejoin="round" stroke-width="3.000000"
	d="
M77.500000,354.500000 
	C77.786644,358.451691 81.740639,359.727844 83.393768,362.561981 
	C85.827904,366.735016 88.805832,367.346619 93.504509,367.267487 
	C100.459282,367.150330 107.584869,365.884338 114.500000,368.000000 
"/>
<path fill="none" opacity="1.000000" stroke="#000000" stroke-linecap="round" stroke-linejoin="round" stroke-width="4.000000"
	d="
M357.000000,403.000000 
	C364.813049,404.119598 372.669006,403.111908 380.501709,403.461884 
	C385.159058,403.669983 389.833344,403.500000 394.500000,403.500000 
"/>
<path fill="none" opacity="1.000000" stroke="#000000" stroke-linecap="round" stroke-linejoin="round" stroke-width="4.000000"
	d="
M125.000000,273.000000 
	C129.568008,276.419739 126.712463,281.324188 127.500000,285.500000 
"/>
<path fill="none" opacity="1.000000" stroke="#000000" stroke-linecap="round" stroke-linejoin="round" stroke-width="3.000000"
	d="
M277.500000,690.500000 
	C282.799744,691.741699 288.165833,690.858337 293.499481,691.017334 
	C295.502686,691.077026 297.500000,691.333374 299.500000,691.500000 
"/>
<path fill="none" opacity="1.000000" stroke="#000000" stroke-linecap="round" stroke-linejoin="round" stroke-width="3.000000"
	d="
M172.000000,691.000000 
	C179.166672,691.000000 186.333328,691.000000 193.500000,691.000000 
"/>
<path fill="none" opacity="1.000000" stroke="#000000" stroke-linecap="round" stroke-linejoin="round" stroke-width="3.000000"
	d="
M386.000000,389.000000 
	C384.954132,389.781860 384.543976,391.281250 382.469116,390.593079 
	C378.576324,389.301880 374.500000,389.860535 370.500000,390.500000 
"/>
<path fill="none" opacity="1.000000" stroke="#000000" stroke-linecap="round" stroke-linejoin="round" stroke-width="5.000000"
	d="
M164.500000,486.500000 
	C156.500000,486.358643 148.500000,485.424164 140.500000,486.500000 
"/>
<path fill="none" opacity="1.000000" stroke="#000000" stroke-linecap="round" stroke-linejoin="round" stroke-width="3.000000"
	d="
M76.500000,387.500000 
	C80.155983,388.091888 83.415977,388.369019 87.131622,386.228485 
	C90.828819,384.098541 95.672150,386.941711 100.030838,385.600189 
	C101.310593,385.206329 102.597191,386.450043 103.000000,388.000000 
"/>
<path fill="none" opacity="1.000000" stroke="#000000" stroke-linecap="round" stroke-linejoin="round" stroke-width="5.000000"
	d="
M164.500000,477.500000 
	C156.333328,477.666656 148.166672,477.833313 140.000000,478.000000 
"/>
<path fill="none" opacity="1.000000" stroke="#000000" stroke-linecap="round" stroke-linejoin="round" stroke-width="5.000000"
	d="
M164.500000,495.500000 
	C156.333328,495.333344 148.166672,495.166687 140.000000,495.000000 
"/>
<path fill="none" opacity="1.000000" stroke="#000000" stroke-linecap="round" stroke-linejoin="round" stroke-width="3.000000"
	d="
M343.500000,340.500000 
	C344.484741,344.465912 343.799805,348.501404 344.000000,352.500000 
"/>
<path fill="none" opacity="1.000000" stroke="#000000" stroke-linecap="round" stroke-linejoin="round" stroke-width="3.000000"
	d="
M100.500000,390.500000 
	C96.500000,389.720428 92.500000,389.720428 88.500000,390.500000 
"/>
<path fill="none" opacity="1.000000" stroke="#000000" stroke-linecap="round" stroke-linejoin="round" stroke-width="3.000000"
	d="
M374.500000,341.000000 
	C373.196472,345.121185 374.602997,349.350800 374.000000,353.500000 
"/>
<path fill="none" opacity="1.000000" stroke="#000000" stroke-linecap="round" stroke-linejoin="round" stroke-width="2.000000"
	d="
M82.500000,109.500000 
	C86.336655,109.590233 90.194862,109.184891 94.000000,110.000000 
"/>
<path fill="none" opacity="1.000000" stroke="#000000" stroke-linecap="round" stroke-linejoin="round" stroke-width="5.000000"
	d="
M330.500000,495.000000 
	C322.666656,495.000000 314.833344,495.000000 307.000000,495.000000 
"/>
<path fill="none" opacity="1.000000" stroke="#000000" stroke-linecap="round" stroke-linejoin="round" stroke-width="3.000000"
	d="
M69.500000,340.500000 
	C68.847816,344.333344 68.580925,348.166656 69.500000,352.000000 
"/>
<path fill="none" opacity="1.000000" stroke="#000000" stroke-linecap="round" stroke-linejoin="round" stroke-width="3.000000"
	d="
M357.000000,391.000000 
	C361.017517,388.802246 365.389801,391.039276 370.000000,389.036102 
	C370.000000,394.153351 370.000000,398.326660 370.000000,402.500000 
"/>
<path fill="none" opacity="1.000000" stroke="#000000" stroke-linecap="round" stroke-linejoin="round" stroke-width="7.000000"
	d="
M113.500000,388.000000 
	C101.000008,388.000000 101.000008,388.000000 101.000000,400.500000 
	C101.000000,401.166656 101.000000,401.833344 101.000000,402.500000 
"/>
<path fill="none" opacity="1.000000" stroke="#000000" stroke-linecap="round" stroke-linejoin="round" stroke-width="2.000000"
	d="
M83.500000,289.000000 
	C79.632683,288.385071 75.766457,287.795197 72.000000,289.500000 
"/>
<path fill="none" opacity="1.000000" stroke="#000000" stroke-linecap="round" stroke-linejoin="round" stroke-width="2.000000"
	d="
M399.999969,294.000000 
	C399.868439,292.497559 399.736908,290.995117 399.610992,289.557129 
	C395.666656,288.166595 391.833344,287.819214 388.000000,289.500000 
"/>
<path fill="none" opacity="1.000000" stroke="#000000" stroke-linecap="round" stroke-linejoin="round" stroke-width="3.000000"
	d="
M71.500000,90.000000 
	C71.352425,86.813148 71.452217,84.631363 76.049072,85.808319 
	C79.295807,86.639580 83.035309,86.408089 86.500000,85.500000 
"/>
<path fill="none" opacity="1.000000" stroke="#000000" stroke-linecap="round" stroke-linejoin="round" stroke-width="4.000000"
	d="
M331.000000,478.000000 
	C323.000000,478.000000 315.000000,478.000000 307.000000,478.000000 
"/>
<path fill="none" opacity="1.000000" stroke="#000000" stroke-linecap="round" stroke-linejoin="round" stroke-width="2.000000"
	d="
M383.000000,173.000000 
	C383.166656,176.666672 383.333344,180.333328 383.500000,184.000000 
"/>
<path fill="none" opacity="1.000000" stroke="#000000" stroke-linecap="round" stroke-linejoin="round" stroke-width="3.000000"
	d="
M383.500000,391.500000 
	C384.267365,395.166656 384.267365,398.833344 383.500000,402.500000 
"/>
<path fill="none" opacity="1.000000" stroke="#000000" stroke-linecap="round" stroke-linejoin="round" stroke-width="3.000000"
	d="
M86.000000,389.000000 
	C89.859314,393.126740 87.606407,397.932617 87.500000,402.500000 
"/>
<path fill="none" opacity="1.000000" stroke="#000000" stroke-linecap="round" stroke-linejoin="round" stroke-width="3.000000"
	d="
M69.500000,167.000000 
	C72.768036,173.008041 73.654854,179.164185 70.469017,185.484375 
	C69.872452,186.667862 70.094490,187.823029 70.000000,189.000000 
"/>
<path fill="none" opacity="1.000000" stroke="#000000" stroke-linecap="round" stroke-linejoin="round" stroke-width="3.000000"
	d="
M90.500000,167.000000 
	C87.415314,173.256546 86.168724,179.590347 90.024673,185.985123 
	C91.391403,188.251755 89.726540,189.242188 88.500000,190.500000 
"/>
<path fill="none" opacity="1.000000" stroke="#000000" stroke-linecap="round" stroke-linejoin="round" stroke-width="3.000000"
	d="
M401.500000,167.000000 
	C397.862793,172.254333 399.265289,178.249802 399.000000,184.000000 
"/>
<path fill="none" opacity="1.000000" stroke="#000000" stroke-linecap="round" stroke-linejoin="round" stroke-width="4.000000"
	d="
M321.000000,471.000000 
	C323.098663,468.828308 326.025574,469.662689 328.533051,469.167175 
	C329.738373,468.929016 332.768829,469.599396 332.342072,471.463867 
	C331.198700,476.459229 333.819336,481.731934 331.000000,486.500000 
"/>
<path fill="none" opacity="1.000000" stroke="#000000" stroke-linecap="round" stroke-linejoin="round" stroke-width="3.000000"
	d="
M382.500000,90.000000 
	C382.352417,86.813148 382.453339,84.628151 387.050415,85.802711 
	C390.113708,86.585381 393.711731,86.567978 397.000000,85.500000 
"/>
<path fill="none" opacity="1.000000" stroke="#000000" stroke-linecap="round" stroke-linejoin="round" stroke-width="3.000000"
	d="
M43.500000,341.000000 
	C42.699753,344.666656 42.699753,348.333344 43.500000,352.000000 
"/>
<path fill="none" opacity="1.000000" stroke="#000000" stroke-linecap="round" stroke-linejoin="round" stroke-width="3.000000"
	d="
M428.000000,341.000000 
	C428.000000,344.666656 428.000000,348.333344 428.000000,352.000000 
"/>
<path fill="none" opacity="1.000000" stroke="#000000" stroke-linecap="round" stroke-linejoin="round" stroke-width="3.000000"
	d="
M406.500000,339.500000 
	C402.926544,339.636871 401.512787,341.485382 401.979401,345.002747 
	C402.286682,347.319366 401.521912,349.724640 402.500000,352.000000 
"/>
<path fill="none" opacity="1.000000" stroke="#000000" stroke-linecap="round" stroke-linejoin="round" stroke-width="4.000000"
	d="
M186.500000,717.500000 
	C186.500000,721.000000 186.500000,724.500000 186.500000,728.000000 
"/>
<path fill="none" opacity="1.000000" stroke="#000000" stroke-linecap="round" stroke-linejoin="round" stroke-width="2.000000"
	d="
M396.500000,82.000000 
	C392.963562,81.401161 389.429474,80.852036 386.000000,82.500000 
"/>
<path fill="none" opacity="1.000000" stroke="#000000" stroke-linecap="round" stroke-linejoin="round" stroke-width="4.000000"
	d="
M284.500000,717.500000 
	C284.500000,720.833313 284.500000,724.166687 284.500000,727.500000 
"/>
<path fill="none" opacity="1.000000" stroke="#000000" stroke-linecap="round" stroke-linejoin="round" stroke-width="2.000000"
	d="
M89.000000,90.000000 
	C87.640327,82.070183 84.418777,80.229301 75.000000,82.000000 
"/>
<path fill="none" opacity="1.000000" stroke="#000000" stroke-linecap="round" stroke-linejoin="round" stroke-width="3.000000"
	d="
M125.000000,294.500000 
	C128.166672,294.833344 131.333328,295.166656 134.500000,295.500000 
"/>
<path fill="none" opacity="1.000000" stroke="#000000" stroke-linecap="round" stroke-linejoin="round" stroke-width="3.000000"
	d="
M82.500000,295.500000 
	C79.333336,294.889679 76.166664,294.562469 73.000000,295.500000 
"/>
<path fill="none" opacity="1.000000" stroke="#000000" stroke-linecap="round" stroke-linejoin="round" stroke-width="3.000000"
	d="
M347.500000,300.500000 
	C343.801727,300.696259 340.480682,301.533844 339.000000,305.500000 
"/>
<path fill="none" opacity="1.000000" stroke="#000000" stroke-linecap="round" stroke-linejoin="round" stroke-width="7.000000"
	d="
M413.500000,388.000000 
	C407.500000,388.000000 401.500000,388.000000 395.500000,388.000000 
"/>
<path fill="none" opacity="1.000000" stroke="#000000" stroke-linecap="round" stroke-linejoin="round" stroke-width="2.000000"
	d="
M405.500000,403.000000 
	C408.500000,403.746735 411.500000,403.746735 414.500000,403.000000 
"/>
<path fill="none" opacity="1.000000" stroke="#000000" stroke-linecap="round" stroke-linejoin="round" stroke-width="3.000000"
	d="
M414.500000,367.500000 
	C408.333344,366.614197 402.166656,367.075073 396.000000,367.500000 
"/>
<path fill="none" opacity="1.000000" stroke="#000000" stroke-linecap="round" stroke-linejoin="round" stroke-width="3.000000"
	d="
M124.000000,300.500000 
	C127.378853,300.969574 130.774765,301.406921 132.500000,305.000000 
"/>
<path fill="none" opacity="1.000000" stroke="#000000" stroke-linecap="round" stroke-linejoin="round" stroke-width="3.000000"
	d="
M346.000000,294.500000 
	C343.046204,295.498352 339.997498,294.788391 337.000000,295.000000 
"/>
<path fill="none" opacity="1.000000" stroke="#000000" stroke-linecap="round" stroke-linejoin="round" stroke-width="6.000000"
	d="
M126.500000,240.500000 
	C122.500000,240.500000 118.500000,240.500000 114.500000,240.500000 
"/>
<path fill="none" opacity="1.000000" stroke="#000000" stroke-linecap="round" stroke-linejoin="round" stroke-width="3.000000"
	d="
M75.500000,367.500000 
	C69.333336,366.869171 63.166668,366.677917 57.000000,367.500000 
"/>
<path fill="none" opacity="1.000000" stroke="#000000" stroke-linecap="round" stroke-linejoin="round" stroke-width="7.000000"
	d="
M75.500000,388.000000 
	C69.500000,388.000000 63.500000,388.000000 57.500000,388.000000 
"/>
<path fill="none" opacity="1.000000" stroke="#000000" stroke-linecap="round" stroke-linejoin="round" stroke-width="2.000000"
	d="
M76.500000,403.500000 
	C79.350861,403.684387 82.315826,402.898804 85.000000,404.500000 
"/>
<path fill="none" opacity="1.000000" stroke="#000000" stroke-linecap="round" stroke-linejoin="round" stroke-width="3.000000"
	d="
M85.000000,366.500000 
	C82.272629,368.467987 79.312675,366.482086 76.500000,367.000000 
"/>
<path fill="none" opacity="1.000000" stroke="#000000" stroke-linecap="round" stroke-linejoin="round" stroke-width="3.000000"
	d="
M205.500000,219.500000 
	C204.333328,219.166672 203.184326,218.644714 201.996857,218.533539 
	C197.516312,218.114075 196.210052,219.473312 196.492615,224.000458 
	C196.544418,224.830551 196.500000,225.666672 196.500000,226.500000 
"/>
<path fill="none" opacity="1.000000" stroke="#000000" stroke-linecap="round" stroke-linejoin="round" stroke-width="3.000000"
	d="
M195.000000,716.000000 
	C192.000000,716.166626 189.000000,716.333313 186.000000,716.500000 
"/>
<path fill="none" opacity="1.000000" stroke="#000000" stroke-linecap="round" stroke-linejoin="round" stroke-width="2.000000"
	d="
M57.500000,403.000000 
	C59.333336,403.166656 61.280228,403.802338 62.973911,403.392242 
	C65.644852,402.745575 67.372833,403.714844 69.000000,405.500000 
"/>
<path fill="none" opacity="1.000000" stroke="#000000" stroke-linecap="round" stroke-linejoin="round" stroke-width="3.000000"
	d="
M357.500000,385.500031 
	C361.500000,385.666687 365.500000,385.833374 369.500000,386.000031 
"/>
<path fill="none" opacity="1.000000" stroke="#000000" stroke-linecap="round" stroke-linejoin="round" stroke-width="3.000000"
	d="
M273.500000,219.000000 
	C265.051575,217.857208 265.000000,217.907272 265.000000,227.250000 
"/>
<path fill="none" opacity="1.000000" stroke="#000000" stroke-linecap="round" stroke-linejoin="round" stroke-width="3.000000"
	d="
M79.000000,360.000000 
	C76.557549,361.715149 77.436928,364.853912 76.000000,367.000000 
"/>
<path fill="none" opacity="1.000000" stroke="#000000" stroke-linecap="round" stroke-linejoin="round" stroke-width="3.000000"
	d="
M400.000000,190.500000 
	C399.766388,192.494415 400.549225,194.573547 399.500000,196.500000 
"/>
<path fill="none" opacity="1.000000" stroke="#000000" stroke-linecap="round" stroke-linejoin="round" stroke-width="3.000000"
	d="
M55.500000,404.000000 
	C55.013950,406.779449 55.668781,408.396729 59.004532,408.042694 
	C62.259331,407.697266 65.495995,408.344635 68.620674,406.173676 
	C70.081963,405.158447 72.833336,406.000000 76.000000,406.000000 
	C76.000000,393.016449 76.000000,380.008240 76.000000,367.000000 
"/>
<path fill="none" opacity="1.000000" stroke="#000000" stroke-linecap="round" stroke-linejoin="round" stroke-width="4.000000"
	d="
M69.500000,285.500000 
	C69.297897,288.693054 73.010925,291.016083 71.500000,294.500000 
"/>
</svg>